<control>label_cc74=CutOff label_cc71=Resonance set_hdcc74=0.5 set_hdcc71=0.5 label_cc76=Vibrato Rate label_cc77=Vibrato Depth label_cc78=Vibrato Delay set_hdcc76=0.32 set_hdcc77=0.5 set_hdcc78=0.1 set_cc16=127 label_cc16=RCrash 1 ffL set_cc17=127 label_cc17=No Wave set_cc18=127 label_cc18=No Wave set_cc19=127 label_cc19=No Wave
<group>lovel=1 hivel=127 volume=12 amp_velcurve_0=0 amp_velcurve_1=1 amp_velcurve_127=1 pitch_oncc136=0 fil_type=lpf_2p cutoff=11025 cutoff_cc74=6912 cutoff_curvecc74=1 cutoff_cc133=0 cutoff_curvecc133=133 eg4_cutoff=-5482.7716535 fil2_type=lpf_4p cutoff2=22050 eg4_sustain=4 resonance_oncc71=40 resonance_curvecc71=1 resonance=5.6692913 resonance_oncc131=0 group_amplitude=100 volume_curvecc131=201 volume_oncc131=23.015873 pan_keytrack=0 pan_oncc136=0 eg9_sustain=2 eg9_time1=0 eg9_time1_oncc78=5 eg9_level1=0 eg9_time2=0 eg9_time2_oncc78=5 eg9_level2=1 eg9_level2_oncc77=-2 lfo9_wave=1 lfo9_delay=0 lfo9_delay_oncc78=5 lfo9_fade=0 lfo9_fade_oncc78=5 lfo9_freq=0 lfo9_freq_oncc76=20 lfo9_pitch=0 lfo9_pitch_oncc77=555 lfo9_pitch_curvecc77=77 eg9_pitch_oncc77=3.5
<region>sample=../Sample/Wave2005.wav lokey=0 hikey=0 pitch_keycenter=60 tune=3000 loop_mode=one_shot pan=0 eg2_cutoff=5472 eg2_sustain=4 eg2_time1=0 eg2_time2=0 eg2_time3=0.0489896 eg2_time4=0 eg2_time5=0 eg2_level1=0 eg2_level2=1 eg2_level3=0.9055118 eg2_level4=0.9055118 eg2_level5=1 eg2_cutoff_curvecc131=201 eg2_cutoff_oncc131=1042.2857143 eg3_amplitude=100 eg3_sustain=4 eg3_time1=0 eg3_time2=0 eg3_time3=8.2358803 eg3_time4=0.1059483 eg3_time5=0.5679115 eg3_level1=0 eg3_level2=1 eg3_level3=1 eg3_level4=0 eg3_level5=0 amplitude_cc16=100 ampeg_attack=0 ampeg_release=0.5679115 eg4_time1=0 eg4_time2=0 eg4_time3=8.2358803 eg4_time4=0.1059483 eg4_time5=0.5679115 eg4_level1=1 eg4_level2=1 eg4_level3=1 eg4_level4=1 eg4_level5=1
<region>sample=../Sample/Wave2005.wav lokey=1 hikey=1 pitch_keycenter=60 tune=2950 loop_mode=one_shot pan=0 eg2_cutoff=5472 eg2_sustain=4 eg2_time1=0 eg2_time2=0 eg2_time3=0.0489896 eg2_time4=0 eg2_time5=0 eg2_level1=0 eg2_level2=1 eg2_level3=0.9055118 eg2_level4=0.9055118 eg2_level5=1 eg2_cutoff_curvecc131=201 eg2_cutoff_oncc131=1042.2857143 eg3_amplitude=100 eg3_sustain=4 eg3_time1=0 eg3_time2=0 eg3_time3=8.0557873 eg3_time4=0.1036315 eg3_time5=0.555493 eg3_level1=0 eg3_level2=1 eg3_level3=1 eg3_level4=0 eg3_level5=0 amplitude_cc16=100 ampeg_attack=0 ampeg_release=0.555493 eg4_time1=0 eg4_time2=0 eg4_time3=8.0557873 eg4_time4=0.1036315 eg4_time5=0.555493 eg4_level1=1 eg4_level2=1 eg4_level3=1 eg4_level4=1 eg4_level5=1
<region>sample=../Sample/Wave2005.wav lokey=2 hikey=2 pitch_keycenter=60 tune=2900 loop_mode=one_shot pan=0 eg2_cutoff=5472 eg2_sustain=4 eg2_time1=0 eg2_time2=0 eg2_time3=0.0489896 eg2_time4=0 eg2_time5=0 eg2_level1=0 eg2_level2=1 eg2_level3=0.9055118 eg2_level4=0.9055118 eg2_level5=1 eg2_cutoff_curvecc131=201 eg2_cutoff_oncc131=1042.2857143 eg3_amplitude=100 eg3_sustain=4 eg3_time1=0 eg3_time2=0 eg3_time3=7.8796323 eg3_time4=0.1013654 eg3_time5=0.5433461 eg3_level1=0 eg3_level2=1 eg3_level3=1 eg3_level4=0 eg3_level5=0 amplitude_cc16=100 ampeg_attack=0 ampeg_release=0.5433461 eg4_time1=0 eg4_time2=0 eg4_time3=7.8796323 eg4_time4=0.1013654 eg4_time5=0.5433461 eg4_level1=1 eg4_level2=1 eg4_level3=1 eg4_level4=1 eg4_level5=1
<region>sample=../Sample/Wave2005.wav lokey=3 hikey=3 pitch_keycenter=60 tune=2850 loop_mode=one_shot pan=0 eg2_cutoff=5472 eg2_sustain=4 eg2_time1=0 eg2_time2=0 eg2_time3=0.0489896 eg2_time4=0 eg2_time5=0 eg2_level1=0 eg2_level2=1 eg2_level3=0.9055118 eg2_level4=0.9055118 eg2_level5=1 eg2_cutoff_curvecc131=201 eg2_cutoff_oncc131=1042.2857143 eg3_amplitude=100 eg3_sustain=4 eg3_time1=0 eg3_time2=0 eg3_time3=7.7073292 eg3_time4=0.0991489 eg3_time5=0.5314648 eg3_level1=0 eg3_level2=1 eg3_level3=1 eg3_level4=0 eg3_level5=0 amplitude_cc16=100 ampeg_attack=0 ampeg_release=0.5314648 eg4_time1=0 eg4_time2=0 eg4_time3=7.7073292 eg4_time4=0.0991489 eg4_time5=0.5314648 eg4_level1=1 eg4_level2=1 eg4_level3=1 eg4_level4=1 eg4_level5=1
<region>sample=../Sample/Wave2005.wav lokey=4 hikey=4 pitch_keycenter=60 tune=2800 loop_mode=one_shot pan=0 eg2_cutoff=5472 eg2_sustain=4 eg2_time1=0 eg2_time2=0 eg2_time3=0.0489896 eg2_time4=0 eg2_time5=0 eg2_level1=0 eg2_level2=1 eg2_level3=0.9055118 eg2_level4=0.9055118 eg2_level5=1 eg2_cutoff_curvecc131=201 eg2_cutoff_oncc131=1042.2857143 eg3_amplitude=100 eg3_sustain=4 eg3_time1=0 eg3_time2=0 eg3_time3=7.538794 eg3_time4=0.0969808 eg3_time5=0.5198434 eg3_level1=0 eg3_level2=1 eg3_level3=1 eg3_level4=0 eg3_level5=0 amplitude_cc16=100 ampeg_attack=0 ampeg_release=0.5198434 eg4_time1=0 eg4_time2=0 eg4_time3=7.538794 eg4_time4=0.0969808 eg4_time5=0.5198434 eg4_level1=1 eg4_level2=1 eg4_level3=1 eg4_level4=1 eg4_level5=1
<region>sample=../Sample/Wave2005.wav lokey=5 hikey=5 pitch_keycenter=60 tune=2750 loop_mode=one_shot pan=0 eg2_cutoff=5472 eg2_sustain=4 eg2_time1=0 eg2_time2=0 eg2_time3=0.0489896 eg2_time4=0 eg2_time5=0 eg2_level1=0 eg2_level2=1 eg2_level3=0.9055118 eg2_level4=0.9055118 eg2_level5=1 eg2_cutoff_curvecc131=201 eg2_cutoff_oncc131=1042.2857143 eg3_amplitude=100 eg3_sustain=4 eg3_time1=0 eg3_time2=0 eg3_time3=7.373944 eg3_time4=0.0948601 eg3_time5=0.508476 eg3_level1=0 eg3_level2=1 eg3_level3=1 eg3_level4=0 eg3_level5=0 amplitude_cc16=100 ampeg_attack=0 ampeg_release=0.508476 eg4_time1=0 eg4_time2=0 eg4_time3=7.373944 eg4_time4=0.0948601 eg4_time5=0.508476 eg4_level1=1 eg4_level2=1 eg4_level3=1 eg4_level4=1 eg4_level5=1
<region>sample=../Sample/Wave2005.wav lokey=6 hikey=6 pitch_keycenter=60 tune=2700 loop_mode=one_shot pan=0 eg2_cutoff=5472 eg2_sustain=4 eg2_time1=0 eg2_time2=0 eg2_time3=0.0489896 eg2_time4=0 eg2_time5=0 eg2_level1=0 eg2_level2=1 eg2_level3=0.9055118 eg2_level4=0.9055118 eg2_level5=1 eg2_cutoff_curvecc131=201 eg2_cutoff_oncc131=1042.2857143 eg3_amplitude=100 eg3_sustain=4 eg3_time1=0 eg3_time2=0 eg3_time3=7.2126988 eg3_time4=0.0927858 eg3_time5=0.4973572 eg3_level1=0 eg3_level2=1 eg3_level3=1 eg3_level4=0 eg3_level5=0 amplitude_cc16=100 ampeg_attack=0 ampeg_release=0.4973572 eg4_time1=0 eg4_time2=0 eg4_time3=7.2126988 eg4_time4=0.0927858 eg4_time5=0.4973572 eg4_level1=1 eg4_level2=1 eg4_level3=1 eg4_level4=1 eg4_level5=1
<region>sample=../Sample/Wave2005.wav lokey=7 hikey=7 pitch_keycenter=60 tune=2650 loop_mode=one_shot pan=0 eg2_cutoff=5472 eg2_sustain=4 eg2_time1=0 eg2_time2=0 eg2_time3=0.0489896 eg2_time4=0 eg2_time5=0 eg2_level1=0 eg2_level2=1 eg2_level3=0.9055118 eg2_level4=0.9055118 eg2_level5=1 eg2_cutoff_curvecc131=201 eg2_cutoff_oncc131=1042.2857143 eg3_amplitude=100 eg3_sustain=4 eg3_time1=0 eg3_time2=0 eg3_time3=7.0549795 eg3_time4=0.0907569 eg3_time5=0.4864816 eg3_level1=0 eg3_level2=1 eg3_level3=1 eg3_level4=0 eg3_level5=0 amplitude_cc16=100 ampeg_attack=0 ampeg_release=0.4864816 eg4_time1=0 eg4_time2=0 eg4_time3=7.0549795 eg4_time4=0.0907569 eg4_time5=0.4864816 eg4_level1=1 eg4_level2=1 eg4_level3=1 eg4_level4=1 eg4_level5=1
<region>sample=../Sample/Wave2005.wav lokey=8 hikey=8 pitch_keycenter=60 tune=2600 loop_mode=one_shot pan=0 eg2_cutoff=5472 eg2_sustain=4 eg2_time1=0 eg2_time2=0 eg2_time3=0.0489896 eg2_time4=0 eg2_time5=0 eg2_level1=0 eg2_level2=1 eg2_level3=0.9055118 eg2_level4=0.9055118 eg2_level5=1 eg2_cutoff_curvecc131=201 eg2_cutoff_oncc131=1042.2857143 eg3_amplitude=100 eg3_sustain=4 eg3_time1=0 eg3_time2=0 eg3_time3=6.9007091 eg3_time4=0.0887723 eg3_time5=0.4758437 eg3_level1=0 eg3_level2=1 eg3_level3=1 eg3_level4=0 eg3_level5=0 amplitude_cc16=100 ampeg_attack=0 ampeg_release=0.4758437 eg4_time1=0 eg4_time2=0 eg4_time3=6.9007091 eg4_time4=0.0887723 eg4_time5=0.4758437 eg4_level1=1 eg4_level2=1 eg4_level3=1 eg4_level4=1 eg4_level5=1
<region>sample=../Sample/Wave2005.wav lokey=9 hikey=9 pitch_keycenter=60 tune=2550 loop_mode=one_shot pan=0 eg2_cutoff=5472 eg2_sustain=4 eg2_time1=0 eg2_time2=0 eg2_time3=0.0489896 eg2_time4=0 eg2_time5=0 eg2_level1=0 eg2_level2=1 eg2_level3=0.9055118 eg2_level4=0.9055118 eg2_level5=1 eg2_cutoff_curvecc131=201 eg2_cutoff_oncc131=1042.2857143 eg3_amplitude=100 eg3_sustain=4 eg3_time1=0 eg3_time2=0 eg3_time3=6.7498121 eg3_time4=0.0868311 eg3_time5=0.4654385 eg3_level1=0 eg3_level2=1 eg3_level3=1 eg3_level4=0 eg3_level5=0 amplitude_cc16=100 ampeg_attack=0 ampeg_release=0.4654385 eg4_time1=0 eg4_time2=0 eg4_time3=6.7498121 eg4_time4=0.0868311 eg4_time5=0.4654385 eg4_level1=1 eg4_level2=1 eg4_level3=1 eg4_level4=1 eg4_level5=1
<region>sample=../Sample/Wave2005.wav lokey=10 hikey=10 pitch_keycenter=60 tune=2500 loop_mode=one_shot pan=0 eg2_cutoff=5472 eg2_sustain=4 eg2_time1=0 eg2_time2=0 eg2_time3=0.0489896 eg2_time4=0 eg2_time5=0 eg2_level1=0 eg2_level2=1 eg2_level3=0.9055118 eg2_level4=0.9055118 eg2_level5=1 eg2_cutoff_curvecc131=201 eg2_cutoff_oncc131=1042.2857143 eg3_amplitude=100 eg3_sustain=4 eg3_time1=0 eg3_time2=0 eg3_time3=6.6022147 eg3_time4=0.0849324 eg3_time5=0.4552608 eg3_level1=0 eg3_level2=1 eg3_level3=1 eg3_level4=0 eg3_level5=0 amplitude_cc16=100 ampeg_attack=0 ampeg_release=0.4552608 eg4_time1=0 eg4_time2=0 eg4_time3=6.6022147 eg4_time4=0.0849324 eg4_time5=0.4552608 eg4_level1=1 eg4_level2=1 eg4_level3=1 eg4_level4=1 eg4_level5=1
<region>sample=../Sample/Wave2005.wav lokey=11 hikey=11 pitch_keycenter=60 tune=2450 loop_mode=one_shot pan=0 eg2_cutoff=5472 eg2_sustain=4 eg2_time1=0 eg2_time2=0 eg2_time3=0.0489896 eg2_time4=0 eg2_time5=0 eg2_level1=0 eg2_level2=1 eg2_level3=0.9055118 eg2_level4=0.9055118 eg2_level5=1 eg2_cutoff_curvecc131=201 eg2_cutoff_oncc131=1042.2857143 eg3_amplitude=100 eg3_sustain=4 eg3_time1=0 eg3_time2=0 eg3_time3=6.4578448 eg3_time4=0.0830752 eg3_time5=0.4453057 eg3_level1=0 eg3_level2=1 eg3_level3=1 eg3_level4=0 eg3_level5=0 amplitude_cc16=100 ampeg_attack=0 ampeg_release=0.4453057 eg4_time1=0 eg4_time2=0 eg4_time3=6.4578448 eg4_time4=0.0830752 eg4_time5=0.4453057 eg4_level1=1 eg4_level2=1 eg4_level3=1 eg4_level4=1 eg4_level5=1
<region>sample=../Sample/Wave2005.wav lokey=12 hikey=12 pitch_keycenter=60 tune=2400 loop_mode=one_shot pan=0 eg2_cutoff=5472 eg2_sustain=4 eg2_time1=0 eg2_time2=0 eg2_time3=0.0489896 eg2_time4=0 eg2_time5=0 eg2_level1=0 eg2_level2=1 eg2_level3=0.9055118 eg2_level4=0.9055118 eg2_level5=1 eg2_cutoff_curvecc131=201 eg2_cutoff_oncc131=1042.2857143 eg3_amplitude=100 eg3_sustain=4 eg3_time1=0 eg3_time2=0 eg3_time3=6.3166319 eg3_time4=0.0812586 eg3_time5=0.4355682 eg3_level1=0 eg3_level2=1 eg3_level3=1 eg3_level4=0 eg3_level5=0 amplitude_cc16=100 ampeg_attack=0 ampeg_release=0.4355682 eg4_time1=0 eg4_time2=0 eg4_time3=6.3166319 eg4_time4=0.0812586 eg4_time5=0.4355682 eg4_level1=1 eg4_level2=1 eg4_level3=1 eg4_level4=1 eg4_level5=1
<region>sample=../Sample/Wave2005.wav lokey=13 hikey=13 pitch_keycenter=60 tune=2350 loop_mode=one_shot pan=0 eg2_cutoff=5472 eg2_sustain=4 eg2_time1=0 eg2_time2=0 eg2_time3=0.0489896 eg2_time4=0 eg2_time5=0 eg2_level1=0 eg2_level2=1 eg2_level3=0.9055118 eg2_level4=0.9055118 eg2_level5=1 eg2_cutoff_curvecc131=201 eg2_cutoff_oncc131=1042.2857143 eg3_amplitude=100 eg3_sustain=4 eg3_time1=0 eg3_time2=0 eg3_time3=6.1785068 eg3_time4=0.0794817 eg3_time5=0.4260437 eg3_level1=0 eg3_level2=1 eg3_level3=1 eg3_level4=0 eg3_level5=0 amplitude_cc16=100 ampeg_attack=0 ampeg_release=0.4260437 eg4_time1=0 eg4_time2=0 eg4_time3=6.1785068 eg4_time4=0.0794817 eg4_time5=0.4260437 eg4_level1=1 eg4_level2=1 eg4_level3=1 eg4_level4=1 eg4_level5=1
<region>sample=../Sample/Wave2005.wav lokey=14 hikey=14 pitch_keycenter=60 tune=2300 loop_mode=one_shot pan=0 eg2_cutoff=5472 eg2_sustain=4 eg2_time1=0 eg2_time2=0 eg2_time3=0.0489896 eg2_time4=0 eg2_time5=0 eg2_level1=0 eg2_level2=1 eg2_level3=0.9055118 eg2_level4=0.9055118 eg2_level5=1 eg2_cutoff_curvecc131=201 eg2_cutoff_oncc131=1042.2857143 eg3_amplitude=100 eg3_sustain=4 eg3_time1=0 eg3_time2=0 eg3_time3=6.0434021 eg3_time4=0.0777437 eg3_time5=0.4167275 eg3_level1=0 eg3_level2=1 eg3_level3=1 eg3_level4=0 eg3_level5=0 amplitude_cc16=100 ampeg_attack=0 ampeg_release=0.4167275 eg4_time1=0 eg4_time2=0 eg4_time3=6.0434021 eg4_time4=0.0777437 eg4_time5=0.4167275 eg4_level1=1 eg4_level2=1 eg4_level3=1 eg4_level4=1 eg4_level5=1
<region>sample=../Sample/Wave2005.wav lokey=15 hikey=15 pitch_keycenter=60 tune=2250 loop_mode=one_shot pan=0 eg2_cutoff=5472 eg2_sustain=4 eg2_time1=0 eg2_time2=0 eg2_time3=0.0489896 eg2_time4=0 eg2_time5=0 eg2_level1=0 eg2_level2=1 eg2_level3=0.9055118 eg2_level4=0.9055118 eg2_level5=1 eg2_cutoff_curvecc131=201 eg2_cutoff_oncc131=1042.2857143 eg3_amplitude=100 eg3_sustain=4 eg3_time1=0 eg3_time2=0 eg3_time3=5.9112517 eg3_time4=0.0760437 eg3_time5=0.4076149 eg3_level1=0 eg3_level2=1 eg3_level3=1 eg3_level4=0 eg3_level5=0 amplitude_cc16=100 ampeg_attack=0 ampeg_release=0.4076149 eg4_time1=0 eg4_time2=0 eg4_time3=5.9112517 eg4_time4=0.0760437 eg4_time5=0.4076149 eg4_level1=1 eg4_level2=1 eg4_level3=1 eg4_level4=1 eg4_level5=1
<region>sample=../Sample/Wave2005.wav lokey=16 hikey=16 pitch_keycenter=60 tune=2200 loop_mode=one_shot pan=0 eg2_cutoff=5472 eg2_sustain=4 eg2_time1=0 eg2_time2=0 eg2_time3=0.0489896 eg2_time4=0 eg2_time5=0 eg2_level1=0 eg2_level2=1 eg2_level3=0.9055118 eg2_level4=0.9055118 eg2_level5=1 eg2_cutoff_curvecc131=201 eg2_cutoff_oncc131=1042.2857143 eg3_amplitude=100 eg3_sustain=4 eg3_time1=0 eg3_time2=0 eg3_time3=5.781991 eg3_time4=0.0743809 eg3_time5=0.3987017 eg3_level1=0 eg3_level2=1 eg3_level3=1 eg3_level4=0 eg3_level5=0 amplitude_cc16=100 ampeg_attack=0 ampeg_release=0.3987017 eg4_time1=0 eg4_time2=0 eg4_time3=5.781991 eg4_time4=0.0743809 eg4_time5=0.3987017 eg4_level1=1 eg4_level2=1 eg4_level3=1 eg4_level4=1 eg4_level5=1
<region>sample=../Sample/Wave2005.wav lokey=17 hikey=17 pitch_keycenter=60 tune=2150 loop_mode=one_shot pan=0 eg2_cutoff=5472 eg2_sustain=4 eg2_time1=0 eg2_time2=0 eg2_time3=0.0489896 eg2_time4=0 eg2_time5=0 eg2_level1=0 eg2_level2=1 eg2_level3=0.9055118 eg2_level4=0.9055118 eg2_level5=1 eg2_cutoff_curvecc131=201 eg2_cutoff_oncc131=1042.2857143 eg3_amplitude=100 eg3_sustain=4 eg3_time1=0 eg3_time2=0 eg3_time3=5.6555569 eg3_time4=0.0727544 eg3_time5=0.3899833 eg3_level1=0 eg3_level2=1 eg3_level3=1 eg3_level4=0 eg3_level5=0 amplitude_cc16=100 ampeg_attack=0 ampeg_release=0.3899833 eg4_time1=0 eg4_time2=0 eg4_time3=5.6555569 eg4_time4=0.0727544 eg4_time5=0.3899833 eg4_level1=1 eg4_level2=1 eg4_level3=1 eg4_level4=1 eg4_level5=1
<region>sample=../Sample/Wave2005.wav lokey=18 hikey=18 pitch_keycenter=60 tune=2100 loop_mode=one_shot pan=0 eg2_cutoff=5472 eg2_sustain=4 eg2_time1=0 eg2_time2=0 eg2_time3=0.0489896 eg2_time4=0 eg2_time5=0 eg2_level1=0 eg2_level2=1 eg2_level3=0.9055118 eg2_level4=0.9055118 eg2_level5=1 eg2_cutoff_curvecc131=201 eg2_cutoff_oncc131=1042.2857143 eg3_amplitude=100 eg3_sustain=4 eg3_time1=0 eg3_time2=0 eg3_time3=5.5318875 eg3_time4=0.0711635 eg3_time5=0.3814556 eg3_level1=0 eg3_level2=1 eg3_level3=1 eg3_level4=0 eg3_level5=0 amplitude_cc16=100 ampeg_attack=0 ampeg_release=0.3814556 eg4_time1=0 eg4_time2=0 eg4_time3=5.5318875 eg4_time4=0.0711635 eg4_time5=0.3814556 eg4_level1=1 eg4_level2=1 eg4_level3=1 eg4_level4=1 eg4_level5=1
<region>sample=../Sample/Wave2005.wav lokey=19 hikey=19 pitch_keycenter=60 tune=2050 loop_mode=one_shot pan=0 eg2_cutoff=5472 eg2_sustain=4 eg2_time1=0 eg2_time2=0 eg2_time3=0.0489896 eg2_time4=0 eg2_time5=0 eg2_level1=0 eg2_level2=1 eg2_level3=0.9055118 eg2_level4=0.9055118 eg2_level5=1 eg2_cutoff_curvecc131=201 eg2_cutoff_oncc131=1042.2857143 eg3_amplitude=100 eg3_sustain=4 eg3_time1=0 eg3_time2=0 eg3_time3=5.4109223 eg3_time4=0.0696074 eg3_time5=0.3731143 eg3_level1=0 eg3_level2=1 eg3_level3=1 eg3_level4=0 eg3_level5=0 amplitude_cc16=100 ampeg_attack=0 ampeg_release=0.3731143 eg4_time1=0 eg4_time2=0 eg4_time3=5.4109223 eg4_time4=0.0696074 eg4_time5=0.3731143 eg4_level1=1 eg4_level2=1 eg4_level3=1 eg4_level4=1 eg4_level5=1
<region>sample=../Sample/Wave2005.wav lokey=20 hikey=20 pitch_keycenter=60 tune=2000 loop_mode=one_shot pan=0 eg2_cutoff=5472 eg2_sustain=4 eg2_time1=0 eg2_time2=0 eg2_time3=0.0489896 eg2_time4=0 eg2_time5=0 eg2_level1=0 eg2_level2=1 eg2_level3=0.9055118 eg2_level4=0.9055118 eg2_level5=1 eg2_cutoff_curvecc131=201 eg2_cutoff_oncc131=1042.2857143 eg3_amplitude=100 eg3_sustain=4 eg3_time1=0 eg3_time2=0 eg3_time3=5.2926023 eg3_time4=0.0680853 eg3_time5=0.3649555 eg3_level1=0 eg3_level2=1 eg3_level3=1 eg3_level4=0 eg3_level5=0 amplitude_cc16=100 ampeg_attack=0 ampeg_release=0.3649555 eg4_time1=0 eg4_time2=0 eg4_time3=5.2926023 eg4_time4=0.0680853 eg4_time5=0.3649555 eg4_level1=1 eg4_level2=1 eg4_level3=1 eg4_level4=1 eg4_level5=1
<region>sample=../Sample/Wave2005.wav lokey=21 hikey=21 pitch_keycenter=60 tune=1950 loop_mode=one_shot pan=0 eg2_cutoff=5472 eg2_sustain=4 eg2_time1=0 eg2_time2=0 eg2_time3=0.0489896 eg2_time4=0 eg2_time5=0 eg2_level1=0 eg2_level2=1 eg2_level3=0.9055118 eg2_level4=0.9055118 eg2_level5=1 eg2_cutoff_curvecc131=201 eg2_cutoff_oncc131=1042.2857143 eg3_amplitude=100 eg3_sustain=4 eg3_time1=0 eg3_time2=0 eg3_time3=5.1768695 eg3_time4=0.0665964 eg3_time5=0.356975 eg3_level1=0 eg3_level2=1 eg3_level3=1 eg3_level4=0 eg3_level5=0 amplitude_cc16=100 ampeg_attack=0 ampeg_release=0.356975 eg4_time1=0 eg4_time2=0 eg4_time3=5.1768695 eg4_time4=0.0665964 eg4_time5=0.356975 eg4_level1=1 eg4_level2=1 eg4_level3=1 eg4_level4=1 eg4_level5=1
<region>sample=../Sample/Wave2005.wav lokey=22 hikey=22 pitch_keycenter=60 tune=1900 loop_mode=one_shot pan=0 eg2_cutoff=5472 eg2_sustain=4 eg2_time1=0 eg2_time2=0 eg2_time3=0.0489896 eg2_time4=0 eg2_time5=0 eg2_level1=0 eg2_level2=1 eg2_level3=0.9055118 eg2_level4=0.9055118 eg2_level5=1 eg2_cutoff_curvecc131=201 eg2_cutoff_oncc131=1042.2857143 eg3_amplitude=100 eg3_sustain=4 eg3_time1=0 eg3_time2=0 eg3_time3=5.0636675 eg3_time4=0.0651402 eg3_time5=0.3491691 eg3_level1=0 eg3_level2=1 eg3_level3=1 eg3_level4=0 eg3_level5=0 amplitude_cc16=100 ampeg_attack=0 ampeg_release=0.3491691 eg4_time1=0 eg4_time2=0 eg4_time3=5.0636675 eg4_time4=0.0651402 eg4_time5=0.3491691 eg4_level1=1 eg4_level2=1 eg4_level3=1 eg4_level4=1 eg4_level5=1
<region>sample=../Sample/Wave2005.wav lokey=23 hikey=23 pitch_keycenter=60 tune=1850 loop_mode=one_shot pan=0 eg2_cutoff=5472 eg2_sustain=4 eg2_time1=0 eg2_time2=0 eg2_time3=0.0489896 eg2_time4=0 eg2_time5=0 eg2_level1=0 eg2_level2=1 eg2_level3=0.9055118 eg2_level4=0.9055118 eg2_level5=1 eg2_cutoff_curvecc131=201 eg2_cutoff_oncc131=1042.2857143 eg3_amplitude=100 eg3_sustain=4 eg3_time1=0 eg3_time2=0 eg3_time3=4.9529409 eg3_time4=0.0637158 eg3_time5=0.3415339 eg3_level1=0 eg3_level2=1 eg3_level3=1 eg3_level4=0 eg3_level5=0 amplitude_cc16=100 ampeg_attack=0 ampeg_release=0.3415339 eg4_time1=0 eg4_time2=0 eg4_time3=4.9529409 eg4_time4=0.0637158 eg4_time5=0.3415339 eg4_level1=1 eg4_level2=1 eg4_level3=1 eg4_level4=1 eg4_level5=1
<region>sample=../Sample/Wave2005.wav lokey=24 hikey=24 pitch_keycenter=60 tune=1800 loop_mode=one_shot pan=0 eg2_cutoff=5472 eg2_sustain=4 eg2_time1=0 eg2_time2=0 eg2_time3=0.0489896 eg2_time4=0 eg2_time5=0 eg2_level1=0 eg2_level2=1 eg2_level3=0.9055118 eg2_level4=0.9055118 eg2_level5=1 eg2_cutoff_curvecc131=201 eg2_cutoff_oncc131=1042.2857143 eg3_amplitude=100 eg3_sustain=4 eg3_time1=0 eg3_time2=0 eg3_time3=4.8446355 eg3_time4=0.0623225 eg3_time5=0.3340656 eg3_level1=0 eg3_level2=1 eg3_level3=1 eg3_level4=0 eg3_level5=0 amplitude_cc16=100 ampeg_attack=0 ampeg_release=0.3340656 eg4_time1=0 eg4_time2=0 eg4_time3=4.8446355 eg4_time4=0.0623225 eg4_time5=0.3340656 eg4_level1=1 eg4_level2=1 eg4_level3=1 eg4_level4=1 eg4_level5=1
<region>sample=../Sample/Wave2005.wav lokey=25 hikey=25 pitch_keycenter=60 tune=1750 loop_mode=one_shot pan=0 eg2_cutoff=5472 eg2_sustain=4 eg2_time1=0 eg2_time2=0 eg2_time3=0.0489896 eg2_time4=0 eg2_time5=0 eg2_level1=0 eg2_level2=1 eg2_level3=0.9055118 eg2_level4=0.9055118 eg2_level5=1 eg2_cutoff_curvecc131=201 eg2_cutoff_oncc131=1042.2857143 eg3_amplitude=100 eg3_sustain=4 eg3_time1=0 eg3_time2=0 eg3_time3=4.7386984 eg3_time4=0.0609597 eg3_time5=0.3267606 eg3_level1=0 eg3_level2=1 eg3_level3=1 eg3_level4=0 eg3_level5=0 amplitude_cc16=100 ampeg_attack=0 ampeg_release=0.3267606 eg4_time1=0 eg4_time2=0 eg4_time3=4.7386984 eg4_time4=0.0609597 eg4_time5=0.3267606 eg4_level1=1 eg4_level2=1 eg4_level3=1 eg4_level4=1 eg4_level5=1
<region>sample=../Sample/Wave2005.wav lokey=26 hikey=26 pitch_keycenter=60 tune=1700 loop_mode=one_shot pan=0 eg2_cutoff=5472 eg2_sustain=4 eg2_time1=0 eg2_time2=0 eg2_time3=0.0489896 eg2_time4=0 eg2_time5=0 eg2_level1=0 eg2_level2=1 eg2_level3=0.9055118 eg2_level4=0.9055118 eg2_level5=1 eg2_cutoff_curvecc131=201 eg2_cutoff_oncc131=1042.2857143 eg3_amplitude=100 eg3_sustain=4 eg3_time1=0 eg3_time2=0 eg3_time3=4.6350778 eg3_time4=0.0596267 eg3_time5=0.3196154 eg3_level1=0 eg3_level2=1 eg3_level3=1 eg3_level4=0 eg3_level5=0 amplitude_cc16=100 ampeg_attack=0 ampeg_release=0.3196154 eg4_time1=0 eg4_time2=0 eg4_time3=4.6350778 eg4_time4=0.0596267 eg4_time5=0.3196154 eg4_level1=1 eg4_level2=1 eg4_level3=1 eg4_level4=1 eg4_level5=1
<region>sample=../Sample/Wave2005.wav lokey=27 hikey=27 pitch_keycenter=60 tune=1650 loop_mode=one_shot pan=0 eg2_cutoff=5472 eg2_sustain=4 eg2_time1=0 eg2_time2=0 eg2_time3=0.0489896 eg2_time4=0 eg2_time5=0 eg2_level1=0 eg2_level2=1 eg2_level3=0.9055118 eg2_level4=0.9055118 eg2_level5=1 eg2_cutoff_curvecc131=201 eg2_cutoff_oncc131=1042.2857143 eg3_amplitude=100 eg3_sustain=4 eg3_time1=0 eg3_time2=0 eg3_time3=4.5337231 eg3_time4=0.0583229 eg3_time5=0.3126264 eg3_level1=0 eg3_level2=1 eg3_level3=1 eg3_level4=0 eg3_level5=0 amplitude_cc16=100 ampeg_attack=0 ampeg_release=0.3126264 eg4_time1=0 eg4_time2=0 eg4_time3=4.5337231 eg4_time4=0.0583229 eg4_time5=0.3126264 eg4_level1=1 eg4_level2=1 eg4_level3=1 eg4_level4=1 eg4_level5=1
<region>sample=../Sample/Wave2005.wav lokey=28 hikey=28 pitch_keycenter=60 tune=1600 loop_mode=one_shot pan=0 eg2_cutoff=5472 eg2_sustain=4 eg2_time1=0 eg2_time2=0 eg2_time3=0.0489896 eg2_time4=0 eg2_time5=0 eg2_level1=0 eg2_level2=1 eg2_level3=0.9055118 eg2_level4=0.9055118 eg2_level5=1 eg2_cutoff_curvecc131=201 eg2_cutoff_oncc131=1042.2857143 eg3_amplitude=100 eg3_sustain=4 eg3_time1=0 eg3_time2=0 eg3_time3=4.4345847 eg3_time4=0.0570475 eg3_time5=0.3057902 eg3_level1=0 eg3_level2=1 eg3_level3=1 eg3_level4=0 eg3_level5=0 amplitude_cc16=100 ampeg_attack=0 ampeg_release=0.3057902 eg4_time1=0 eg4_time2=0 eg4_time3=4.4345847 eg4_time4=0.0570475 eg4_time5=0.3057902 eg4_level1=1 eg4_level2=1 eg4_level3=1 eg4_level4=1 eg4_level5=1
<region>sample=../Sample/Wave2005.wav lokey=29 hikey=29 pitch_keycenter=60 tune=1550 loop_mode=one_shot pan=0 eg2_cutoff=5472 eg2_sustain=4 eg2_time1=0 eg2_time2=0 eg2_time3=0.0489896 eg2_time4=0 eg2_time5=0 eg2_level1=0 eg2_level2=1 eg2_level3=0.9055118 eg2_level4=0.9055118 eg2_level5=1 eg2_cutoff_curvecc131=201 eg2_cutoff_oncc131=1042.2857143 eg3_amplitude=100 eg3_sustain=4 eg3_time1=0 eg3_time2=0 eg3_time3=4.3376141 eg3_time4=0.0558001 eg3_time5=0.2991035 eg3_level1=0 eg3_level2=1 eg3_level3=1 eg3_level4=0 eg3_level5=0 amplitude_cc16=100 ampeg_attack=0 ampeg_release=0.2991035 eg4_time1=0 eg4_time2=0 eg4_time3=4.3376141 eg4_time4=0.0558001 eg4_time5=0.2991035 eg4_level1=1 eg4_level2=1 eg4_level3=1 eg4_level4=1 eg4_level5=1
<region>sample=../Sample/Wave2005.wav lokey=30 hikey=30 pitch_keycenter=60 tune=1500 loop_mode=one_shot pan=0 eg2_cutoff=5472 eg2_sustain=4 eg2_time1=0 eg2_time2=0 eg2_time3=0.0489896 eg2_time4=0 eg2_time5=0 eg2_level1=0 eg2_level2=1 eg2_level3=0.9055118 eg2_level4=0.9055118 eg2_level5=1 eg2_cutoff_curvecc131=201 eg2_cutoff_oncc131=1042.2857143 eg3_amplitude=100 eg3_sustain=4 eg3_time1=0 eg3_time2=0 eg3_time3=4.242764 eg3_time4=0.0545799 eg3_time5=0.2925631 eg3_level1=0 eg3_level2=1 eg3_level3=1 eg3_level4=0 eg3_level5=0 amplitude_cc16=100 ampeg_attack=0 ampeg_release=0.2925631 eg4_time1=0 eg4_time2=0 eg4_time3=4.242764 eg4_time4=0.0545799 eg4_time5=0.2925631 eg4_level1=1 eg4_level2=1 eg4_level3=1 eg4_level4=1 eg4_level5=1
<region>sample=../Sample/Wave2005.wav lokey=31 hikey=31 pitch_keycenter=60 tune=1450 loop_mode=one_shot pan=0 eg2_cutoff=5472 eg2_sustain=4 eg2_time1=0 eg2_time2=0 eg2_time3=0.0489896 eg2_time4=0 eg2_time5=0 eg2_level1=0 eg2_level2=1 eg2_level3=0.9055118 eg2_level4=0.9055118 eg2_level5=1 eg2_cutoff_curvecc131=201 eg2_cutoff_oncc131=1042.2857143 eg3_amplitude=100 eg3_sustain=4 eg3_time1=0 eg3_time2=0 eg3_time3=4.149988 eg3_time4=0.0533864 eg3_time5=0.2861656 eg3_level1=0 eg3_level2=1 eg3_level3=1 eg3_level4=0 eg3_level5=0 amplitude_cc16=100 ampeg_attack=0 ampeg_release=0.2861656 eg4_time1=0 eg4_time2=0 eg4_time3=4.149988 eg4_time4=0.0533864 eg4_time5=0.2861656 eg4_level1=1 eg4_level2=1 eg4_level3=1 eg4_level4=1 eg4_level5=1
<region>sample=../Sample/Wave2005.wav lokey=32 hikey=32 pitch_keycenter=60 tune=1400 loop_mode=one_shot pan=0 eg2_cutoff=5472 eg2_sustain=4 eg2_time1=0 eg2_time2=0 eg2_time3=0.0489896 eg2_time4=0 eg2_time5=0 eg2_level1=0 eg2_level2=1 eg2_level3=0.9055118 eg2_level4=0.9055118 eg2_level5=1 eg2_cutoff_curvecc131=201 eg2_cutoff_oncc131=1042.2857143 eg3_amplitude=100 eg3_sustain=4 eg3_time1=0 eg3_time2=0 eg3_time3=4.0592406 eg3_time4=0.052219 eg3_time5=0.2799081 eg3_level1=0 eg3_level2=1 eg3_level3=1 eg3_level4=0 eg3_level5=0 amplitude_cc16=100 ampeg_attack=0 ampeg_release=0.2799081 eg4_time1=0 eg4_time2=0 eg4_time3=4.0592406 eg4_time4=0.052219 eg4_time5=0.2799081 eg4_level1=1 eg4_level2=1 eg4_level3=1 eg4_level4=1 eg4_level5=1
<region>sample=../Sample/Wave2005.wav lokey=33 hikey=33 pitch_keycenter=60 tune=1350 loop_mode=one_shot pan=0 eg2_cutoff=5472 eg2_sustain=4 eg2_time1=0 eg2_time2=0 eg2_time3=0.0489896 eg2_time4=0 eg2_time5=0 eg2_level1=0 eg2_level2=1 eg2_level3=0.9055118 eg2_level4=0.9055118 eg2_level5=1 eg2_cutoff_curvecc131=201 eg2_cutoff_oncc131=1042.2857143 eg3_amplitude=100 eg3_sustain=4 eg3_time1=0 eg3_time2=0 eg3_time3=3.9704777 eg3_time4=0.0510771 eg3_time5=0.2737874 eg3_level1=0 eg3_level2=1 eg3_level3=1 eg3_level4=0 eg3_level5=0 amplitude_cc16=100 ampeg_attack=0 ampeg_release=0.2737874 eg4_time1=0 eg4_time2=0 eg4_time3=3.9704777 eg4_time4=0.0510771 eg4_time5=0.2737874 eg4_level1=1 eg4_level2=1 eg4_level3=1 eg4_level4=1 eg4_level5=1
<region>sample=../Sample/Wave2005.wav lokey=34 hikey=34 pitch_keycenter=60 tune=1300 loop_mode=one_shot pan=0 eg2_cutoff=5472 eg2_sustain=4 eg2_time1=0 eg2_time2=0 eg2_time3=0.0489896 eg2_time4=0 eg2_time5=0 eg2_level1=0 eg2_level2=1 eg2_level3=0.9055118 eg2_level4=0.9055118 eg2_level5=1 eg2_cutoff_curvecc131=201 eg2_cutoff_oncc131=1042.2857143 eg3_amplitude=100 eg3_sustain=4 eg3_time1=0 eg3_time2=0 eg3_time3=3.8836557 eg3_time4=0.0499602 eg3_time5=0.2678005 eg3_level1=0 eg3_level2=1 eg3_level3=1 eg3_level4=0 eg3_level5=0 amplitude_cc16=100 ampeg_attack=0 ampeg_release=0.2678005 eg4_time1=0 eg4_time2=0 eg4_time3=3.8836557 eg4_time4=0.0499602 eg4_time5=0.2678005 eg4_level1=1 eg4_level2=1 eg4_level3=1 eg4_level4=1 eg4_level5=1
<region>sample=../Sample/Wave2005.wav lokey=35 hikey=35 pitch_keycenter=60 tune=1250 loop_mode=one_shot pan=0 eg2_cutoff=5472 eg2_sustain=4 eg2_time1=0 eg2_time2=0 eg2_time3=0.0489896 eg2_time4=0 eg2_time5=0 eg2_level1=0 eg2_level2=1 eg2_level3=0.9055118 eg2_level4=0.9055118 eg2_level5=1 eg2_cutoff_curvecc131=201 eg2_cutoff_oncc131=1042.2857143 eg3_amplitude=100 eg3_sustain=4 eg3_time1=0 eg3_time2=0 eg3_time3=3.7987322 eg3_time4=0.0488678 eg3_time5=0.2619445 eg3_level1=0 eg3_level2=1 eg3_level3=1 eg3_level4=0 eg3_level5=0 amplitude_cc16=100 ampeg_attack=0 ampeg_release=0.2619445 eg4_time1=0 eg4_time2=0 eg4_time3=3.7987322 eg4_time4=0.0488678 eg4_time5=0.2619445 eg4_level1=1 eg4_level2=1 eg4_level3=1 eg4_level4=1 eg4_level5=1
<region>sample=../Sample/Wave2005.wav lokey=36 hikey=36 pitch_keycenter=60 tune=1200 loop_mode=one_shot pan=0 eg2_cutoff=5472 eg2_sustain=4 eg2_time1=0 eg2_time2=0 eg2_time3=0.0489896 eg2_time4=0 eg2_time5=0 eg2_level1=0 eg2_level2=1 eg2_level3=0.9055118 eg2_level4=0.9055118 eg2_level5=1 eg2_cutoff_curvecc131=201 eg2_cutoff_oncc131=1042.2857143 eg3_amplitude=100 eg3_sustain=4 eg3_time1=0 eg3_time2=0 eg3_time3=3.7156658 eg3_time4=0.0477992 eg3_time5=0.2562166 eg3_level1=0 eg3_level2=1 eg3_level3=1 eg3_level4=0 eg3_level5=0 amplitude_cc16=100 ampeg_attack=0 ampeg_release=0.2562166 eg4_time1=0 eg4_time2=0 eg4_time3=3.7156658 eg4_time4=0.0477992 eg4_time5=0.2562166 eg4_level1=1 eg4_level2=1 eg4_level3=1 eg4_level4=1 eg4_level5=1
<region>sample=../Sample/Wave2005.wav lokey=37 hikey=37 pitch_keycenter=60 tune=1150 loop_mode=one_shot pan=0 eg2_cutoff=5472 eg2_sustain=4 eg2_time1=0 eg2_time2=0 eg2_time3=0.0489896 eg2_time4=0 eg2_time5=0 eg2_level1=0 eg2_level2=1 eg2_level3=0.9055118 eg2_level4=0.9055118 eg2_level5=1 eg2_cutoff_curvecc131=201 eg2_cutoff_oncc131=1042.2857143 eg3_amplitude=100 eg3_sustain=4 eg3_time1=0 eg3_time2=0 eg3_time3=3.6344158 eg3_time4=0.046754 eg3_time5=0.2506139 eg3_level1=0 eg3_level2=1 eg3_level3=1 eg3_level4=0 eg3_level5=0 amplitude_cc16=100 ampeg_attack=0 ampeg_release=0.2506139 eg4_time1=0 eg4_time2=0 eg4_time3=3.6344158 eg4_time4=0.046754 eg4_time5=0.2506139 eg4_level1=1 eg4_level2=1 eg4_level3=1 eg4_level4=1 eg4_level5=1
<region>sample=../Sample/Wave2005.wav lokey=38 hikey=38 pitch_keycenter=60 tune=1100 loop_mode=one_shot pan=0 eg2_cutoff=5472 eg2_sustain=4 eg2_time1=0 eg2_time2=0 eg2_time3=0.0489896 eg2_time4=0 eg2_time5=0 eg2_level1=0 eg2_level2=1 eg2_level3=0.9055118 eg2_level4=0.9055118 eg2_level5=1 eg2_cutoff_curvecc131=201 eg2_cutoff_oncc131=1042.2857143 eg3_amplitude=100 eg3_sustain=4 eg3_time1=0 eg3_time2=0 eg3_time3=3.5549424 eg3_time4=0.0457316 eg3_time5=0.2451338 eg3_level1=0 eg3_level2=1 eg3_level3=1 eg3_level4=0 eg3_level5=0 amplitude_cc16=100 ampeg_attack=0 ampeg_release=0.2451338 eg4_time1=0 eg4_time2=0 eg4_time3=3.5549424 eg4_time4=0.0457316 eg4_time5=0.2451338 eg4_level1=1 eg4_level2=1 eg4_level3=1 eg4_level4=1 eg4_level5=1
<region>sample=../Sample/Wave2005.wav lokey=39 hikey=39 pitch_keycenter=60 tune=1050 loop_mode=one_shot pan=0 eg2_cutoff=5472 eg2_sustain=4 eg2_time1=0 eg2_time2=0 eg2_time3=0.0489896 eg2_time4=0 eg2_time5=0 eg2_level1=0 eg2_level2=1 eg2_level3=0.9055118 eg2_level4=0.9055118 eg2_level5=1 eg2_cutoff_curvecc131=201 eg2_cutoff_oncc131=1042.2857143 eg3_amplitude=100 eg3_sustain=4 eg3_time1=0 eg3_time2=0 eg3_time3=3.4772069 eg3_time4=0.0447316 eg3_time5=0.2397735 eg3_level1=0 eg3_level2=1 eg3_level3=1 eg3_level4=0 eg3_level5=0 amplitude_cc16=100 ampeg_attack=0 ampeg_release=0.2397735 eg4_time1=0 eg4_time2=0 eg4_time3=3.4772069 eg4_time4=0.0447316 eg4_time5=0.2397735 eg4_level1=1 eg4_level2=1 eg4_level3=1 eg4_level4=1 eg4_level5=1
<region>sample=../Sample/Wave2005.wav lokey=40 hikey=40 pitch_keycenter=60 tune=1000 loop_mode=one_shot pan=0 eg2_cutoff=5472 eg2_sustain=4 eg2_time1=0 eg2_time2=0 eg2_time3=0.0489896 eg2_time4=0 eg2_time5=0 eg2_level1=0 eg2_level2=1 eg2_level3=0.9055118 eg2_level4=0.9055118 eg2_level5=1 eg2_cutoff_curvecc131=201 eg2_cutoff_oncc131=1042.2857143 eg3_amplitude=100 eg3_sustain=4 eg3_time1=0 eg3_time2=0 eg3_time3=3.4011712 eg3_time4=0.0437535 eg3_time5=0.2345304 eg3_level1=0 eg3_level2=1 eg3_level3=1 eg3_level4=0 eg3_level5=0 amplitude_cc16=100 ampeg_attack=0 ampeg_release=0.2345304 eg4_time1=0 eg4_time2=0 eg4_time3=3.4011712 eg4_time4=0.0437535 eg4_time5=0.2345304 eg4_level1=1 eg4_level2=1 eg4_level3=1 eg4_level4=1 eg4_level5=1
<region>sample=../Sample/Wave2005.wav lokey=41 hikey=41 pitch_keycenter=60 tune=950 loop_mode=one_shot pan=0 eg2_cutoff=5472 eg2_sustain=4 eg2_time1=0 eg2_time2=0 eg2_time3=0.0489896 eg2_time4=0 eg2_time5=0 eg2_level1=0 eg2_level2=1 eg2_level3=0.9055118 eg2_level4=0.9055118 eg2_level5=1 eg2_cutoff_curvecc131=201 eg2_cutoff_oncc131=1042.2857143 eg3_amplitude=100 eg3_sustain=4 eg3_time1=0 eg3_time2=0 eg3_time3=3.3267982 eg3_time4=0.0427967 eg3_time5=0.2294019 eg3_level1=0 eg3_level2=1 eg3_level3=1 eg3_level4=0 eg3_level5=0 amplitude_cc16=100 ampeg_attack=0 ampeg_release=0.2294019 eg4_time1=0 eg4_time2=0 eg4_time3=3.3267982 eg4_time4=0.0427967 eg4_time5=0.2294019 eg4_level1=1 eg4_level2=1 eg4_level3=1 eg4_level4=1 eg4_level5=1
<region>sample=../Sample/Wave2005.wav lokey=42 hikey=42 pitch_keycenter=60 tune=900 loop_mode=one_shot pan=0 eg2_cutoff=5472 eg2_sustain=4 eg2_time1=0 eg2_time2=0 eg2_time3=0.0489896 eg2_time4=0 eg2_time5=0 eg2_level1=0 eg2_level2=1 eg2_level3=0.9055118 eg2_level4=0.9055118 eg2_level5=1 eg2_cutoff_curvecc131=201 eg2_cutoff_oncc131=1042.2857143 eg3_amplitude=100 eg3_sustain=4 eg3_time1=0 eg3_time2=0 eg3_time3=3.2540514 eg3_time4=0.0418609 eg3_time5=0.2243856 eg3_level1=0 eg3_level2=1 eg3_level3=1 eg3_level4=0 eg3_level5=0 amplitude_cc16=100 ampeg_attack=0 ampeg_release=0.2243856 eg4_time1=0 eg4_time2=0 eg4_time3=3.2540514 eg4_time4=0.0418609 eg4_time5=0.2243856 eg4_level1=1 eg4_level2=1 eg4_level3=1 eg4_level4=1 eg4_level5=1
<region>sample=../Sample/Wave2005.wav lokey=43 hikey=43 pitch_keycenter=60 tune=850 loop_mode=one_shot pan=0 eg2_cutoff=5472 eg2_sustain=4 eg2_time1=0 eg2_time2=0 eg2_time3=0.0489896 eg2_time4=0 eg2_time5=0 eg2_level1=0 eg2_level2=1 eg2_level3=0.9055118 eg2_level4=0.9055118 eg2_level5=1 eg2_cutoff_curvecc131=201 eg2_cutoff_oncc131=1042.2857143 eg3_amplitude=100 eg3_sustain=4 eg3_time1=0 eg3_time2=0 eg3_time3=3.1828955 eg3_time4=0.0409455 eg3_time5=0.219479 eg3_level1=0 eg3_level2=1 eg3_level3=1 eg3_level4=0 eg3_level5=0 amplitude_cc16=100 ampeg_attack=0 ampeg_release=0.219479 eg4_time1=0 eg4_time2=0 eg4_time3=3.1828955 eg4_time4=0.0409455 eg4_time5=0.219479 eg4_level1=1 eg4_level2=1 eg4_level3=1 eg4_level4=1 eg4_level5=1
<region>sample=../Sample/Wave2005.wav lokey=44 hikey=44 pitch_keycenter=60 tune=800 loop_mode=one_shot pan=0 eg2_cutoff=5472 eg2_sustain=4 eg2_time1=0 eg2_time2=0 eg2_time3=0.0489896 eg2_time4=0 eg2_time5=0 eg2_level1=0 eg2_level2=1 eg2_level3=0.9055118 eg2_level4=0.9055118 eg2_level5=1 eg2_cutoff_curvecc131=201 eg2_cutoff_oncc131=1042.2857143 eg3_amplitude=100 eg3_sustain=4 eg3_time1=0 eg3_time2=0 eg3_time3=3.1132955 eg3_time4=0.0400502 eg3_time5=0.2146797 eg3_level1=0 eg3_level2=1 eg3_level3=1 eg3_level4=0 eg3_level5=0 amplitude_cc16=100 ampeg_attack=0 ampeg_release=0.2146797 eg4_time1=0 eg4_time2=0 eg4_time3=3.1132955 eg4_time4=0.0400502 eg4_time5=0.2146797 eg4_level1=1 eg4_level2=1 eg4_level3=1 eg4_level4=1 eg4_level5=1
<region>sample=../Sample/Wave2005.wav lokey=45 hikey=45 pitch_keycenter=60 tune=750 loop_mode=one_shot pan=0 eg2_cutoff=5472 eg2_sustain=4 eg2_time1=0 eg2_time2=0 eg2_time3=0.0489896 eg2_time4=0 eg2_time5=0 eg2_level1=0 eg2_level2=1 eg2_level3=0.9055118 eg2_level4=0.9055118 eg2_level5=1 eg2_cutoff_curvecc131=201 eg2_cutoff_oncc131=1042.2857143 eg3_amplitude=100 eg3_sustain=4 eg3_time1=0 eg3_time2=0 eg3_time3=3.0452174 eg3_time4=0.0391744 eg3_time5=0.2099853 eg3_level1=0 eg3_level2=1 eg3_level3=1 eg3_level4=0 eg3_level5=0 amplitude_cc16=100 ampeg_attack=0 ampeg_release=0.2099853 eg4_time1=0 eg4_time2=0 eg4_time3=3.0452174 eg4_time4=0.0391744 eg4_time5=0.2099853 eg4_level1=1 eg4_level2=1 eg4_level3=1 eg4_level4=1 eg4_level5=1
<region>sample=../Sample/Wave2005.wav lokey=46 hikey=46 pitch_keycenter=60 tune=700 loop_mode=one_shot pan=0 eg2_cutoff=5472 eg2_sustain=4 eg2_time1=0 eg2_time2=0 eg2_time3=0.0489896 eg2_time4=0 eg2_time5=0 eg2_level1=0 eg2_level2=1 eg2_level3=0.9055118 eg2_level4=0.9055118 eg2_level5=1 eg2_cutoff_curvecc131=201 eg2_cutoff_oncc131=1042.2857143 eg3_amplitude=100 eg3_sustain=4 eg3_time1=0 eg3_time2=0 eg3_time3=2.978628 eg3_time4=0.0383178 eg3_time5=0.2053936 eg3_level1=0 eg3_level2=1 eg3_level3=1 eg3_level4=0 eg3_level5=0 amplitude_cc16=100 ampeg_attack=0 ampeg_release=0.2053936 eg4_time1=0 eg4_time2=0 eg4_time3=2.978628 eg4_time4=0.0383178 eg4_time5=0.2053936 eg4_level1=1 eg4_level2=1 eg4_level3=1 eg4_level4=1 eg4_level5=1
<region>sample=../Sample/Wave2005.wav lokey=47 hikey=47 pitch_keycenter=60 tune=650 loop_mode=one_shot pan=0 eg2_cutoff=5472 eg2_sustain=4 eg2_time1=0 eg2_time2=0 eg2_time3=0.0489896 eg2_time4=0 eg2_time5=0 eg2_level1=0 eg2_level2=1 eg2_level3=0.9055118 eg2_level4=0.9055118 eg2_level5=1 eg2_cutoff_curvecc131=201 eg2_cutoff_oncc131=1042.2857143 eg3_amplitude=100 eg3_sustain=4 eg3_time1=0 eg3_time2=0 eg3_time3=2.9134946 eg3_time4=0.0374799 eg3_time5=0.2009023 eg3_level1=0 eg3_level2=1 eg3_level3=1 eg3_level4=0 eg3_level5=0 amplitude_cc16=100 ampeg_attack=0 ampeg_release=0.2009023 eg4_time1=0 eg4_time2=0 eg4_time3=2.9134946 eg4_time4=0.0374799 eg4_time5=0.2009023 eg4_level1=1 eg4_level2=1 eg4_level3=1 eg4_level4=1 eg4_level5=1
<region>sample=../Sample/Wave2005.wav lokey=48 hikey=48 pitch_keycenter=60 tune=600 loop_mode=one_shot pan=0 eg2_cutoff=5472 eg2_sustain=4 eg2_time1=0 eg2_time2=0 eg2_time3=0.0489896 eg2_time4=0 eg2_time5=0 eg2_level1=0 eg2_level2=1 eg2_level3=0.9055118 eg2_level4=0.9055118 eg2_level5=1 eg2_cutoff_curvecc131=201 eg2_cutoff_oncc131=1042.2857143 eg3_amplitude=100 eg3_sustain=4 eg3_time1=0 eg3_time2=0 eg3_time3=2.8497856 eg3_time4=0.0366603 eg3_time5=0.1965092 eg3_level1=0 eg3_level2=1 eg3_level3=1 eg3_level4=0 eg3_level5=0 amplitude_cc16=100 ampeg_attack=0 ampeg_release=0.1965092 eg4_time1=0 eg4_time2=0 eg4_time3=2.8497856 eg4_time4=0.0366603 eg4_time5=0.1965092 eg4_level1=1 eg4_level2=1 eg4_level3=1 eg4_level4=1 eg4_level5=1
<region>sample=../Sample/Wave2005.wav lokey=49 hikey=49 pitch_keycenter=60 tune=550 loop_mode=one_shot pan=0 eg2_cutoff=5472 eg2_sustain=4 eg2_time1=0 eg2_time2=0 eg2_time3=0.0489896 eg2_time4=0 eg2_time5=0 eg2_level1=0 eg2_level2=1 eg2_level3=0.9055118 eg2_level4=0.9055118 eg2_level5=1 eg2_cutoff_curvecc131=201 eg2_cutoff_oncc131=1042.2857143 eg3_amplitude=100 eg3_sustain=4 eg3_time1=0 eg3_time2=0 eg3_time3=2.7874696 eg3_time4=0.0358587 eg3_time5=0.1922121 eg3_level1=0 eg3_level2=1 eg3_level3=1 eg3_level4=0 eg3_level5=0 amplitude_cc16=100 ampeg_attack=0 ampeg_release=0.1922121 eg4_time1=0 eg4_time2=0 eg4_time3=2.7874696 eg4_time4=0.0358587 eg4_time5=0.1922121 eg4_level1=1 eg4_level2=1 eg4_level3=1 eg4_level4=1 eg4_level5=1
<region>sample=../Sample/Wave2005.wav lokey=50 hikey=50 pitch_keycenter=60 tune=500 loop_mode=one_shot pan=0 eg2_cutoff=5472 eg2_sustain=4 eg2_time1=0 eg2_time2=0 eg2_time3=0.0489896 eg2_time4=0 eg2_time5=0 eg2_level1=0 eg2_level2=1 eg2_level3=0.9055118 eg2_level4=0.9055118 eg2_level5=1 eg2_cutoff_curvecc131=201 eg2_cutoff_oncc131=1042.2857143 eg3_amplitude=100 eg3_sustain=4 eg3_time1=0 eg3_time2=0 eg3_time3=2.7265164 eg3_time4=0.0350745 eg3_time5=0.188009 eg3_level1=0 eg3_level2=1 eg3_level3=1 eg3_level4=0 eg3_level5=0 amplitude_cc16=100 ampeg_attack=0 ampeg_release=0.188009 eg4_time1=0 eg4_time2=0 eg4_time3=2.7265164 eg4_time4=0.0350745 eg4_time5=0.188009 eg4_level1=1 eg4_level2=1 eg4_level3=1 eg4_level4=1 eg4_level5=1
<region>sample=../Sample/Wave2005.wav lokey=51 hikey=51 pitch_keycenter=60 tune=450 loop_mode=one_shot pan=0 eg2_cutoff=5472 eg2_sustain=4 eg2_time1=0 eg2_time2=0 eg2_time3=0.0489896 eg2_time4=0 eg2_time5=0 eg2_level1=0 eg2_level2=1 eg2_level3=0.9055118 eg2_level4=0.9055118 eg2_level5=1 eg2_cutoff_curvecc131=201 eg2_cutoff_oncc131=1042.2857143 eg3_amplitude=100 eg3_sustain=4 eg3_time1=0 eg3_time2=0 eg3_time3=2.6668959 eg3_time4=0.0343076 eg3_time5=0.1838979 eg3_level1=0 eg3_level2=1 eg3_level3=1 eg3_level4=0 eg3_level5=0 amplitude_cc16=100 ampeg_attack=0 ampeg_release=0.1838979 eg4_time1=0 eg4_time2=0 eg4_time3=2.6668959 eg4_time4=0.0343076 eg4_time5=0.1838979 eg4_level1=1 eg4_level2=1 eg4_level3=1 eg4_level4=1 eg4_level5=1
<region>sample=../Sample/Wave2005.wav lokey=52 hikey=52 pitch_keycenter=60 tune=400 loop_mode=one_shot pan=0 eg2_cutoff=5472 eg2_sustain=4 eg2_time1=0 eg2_time2=0 eg2_time3=0.0489896 eg2_time4=0 eg2_time5=0 eg2_level1=0 eg2_level2=1 eg2_level3=0.9055118 eg2_level4=0.9055118 eg2_level5=1 eg2_cutoff_curvecc131=201 eg2_cutoff_oncc131=1042.2857143 eg3_amplitude=100 eg3_sustain=4 eg3_time1=0 eg3_time2=0 eg3_time3=2.6085792 eg3_time4=0.0335574 eg3_time5=0.1798766 eg3_level1=0 eg3_level2=1 eg3_level3=1 eg3_level4=0 eg3_level5=0 amplitude_cc16=100 ampeg_attack=0 ampeg_release=0.1798766 eg4_time1=0 eg4_time2=0 eg4_time3=2.6085792 eg4_time4=0.0335574 eg4_time5=0.1798766 eg4_level1=1 eg4_level2=1 eg4_level3=1 eg4_level4=1 eg4_level5=1
<region>sample=../Sample/Wave2005.wav lokey=53 hikey=53 pitch_keycenter=60 tune=350 loop_mode=one_shot pan=0 eg2_cutoff=5472 eg2_sustain=4 eg2_time1=0 eg2_time2=0 eg2_time3=0.0489896 eg2_time4=0 eg2_time5=0 eg2_level1=0 eg2_level2=1 eg2_level3=0.9055118 eg2_level4=0.9055118 eg2_level5=1 eg2_cutoff_curvecc131=201 eg2_cutoff_oncc131=1042.2857143 eg3_amplitude=100 eg3_sustain=4 eg3_time1=0 eg3_time2=0 eg3_time3=2.5515377 eg3_time4=0.0328236 eg3_time5=0.1759433 eg3_level1=0 eg3_level2=1 eg3_level3=1 eg3_level4=0 eg3_level5=0 amplitude_cc16=100 ampeg_attack=0 ampeg_release=0.1759433 eg4_time1=0 eg4_time2=0 eg4_time3=2.5515377 eg4_time4=0.0328236 eg4_time5=0.1759433 eg4_level1=1 eg4_level2=1 eg4_level3=1 eg4_level4=1 eg4_level5=1
<region>sample=../Sample/Wave2005.wav lokey=54 hikey=54 pitch_keycenter=60 tune=300 loop_mode=one_shot pan=0 eg2_cutoff=5472 eg2_sustain=4 eg2_time1=0 eg2_time2=0 eg2_time3=0.0489896 eg2_time4=0 eg2_time5=0 eg2_level1=0 eg2_level2=1 eg2_level3=0.9055118 eg2_level4=0.9055118 eg2_level5=1 eg2_cutoff_curvecc131=201 eg2_cutoff_oncc131=1042.2857143 eg3_amplitude=100 eg3_sustain=4 eg3_time1=0 eg3_time2=0 eg3_time3=2.4957435 eg3_time4=0.0321058 eg3_time5=0.1720959 eg3_level1=0 eg3_level2=1 eg3_level3=1 eg3_level4=0 eg3_level5=0 amplitude_cc16=100 ampeg_attack=0 ampeg_release=0.1720959 eg4_time1=0 eg4_time2=0 eg4_time3=2.4957435 eg4_time4=0.0321058 eg4_time5=0.1720959 eg4_level1=1 eg4_level2=1 eg4_level3=1 eg4_level4=1 eg4_level5=1
<region>sample=../Sample/Wave2005.wav lokey=55 hikey=55 pitch_keycenter=60 tune=250 loop_mode=one_shot pan=0 eg2_cutoff=5472 eg2_sustain=4 eg2_time1=0 eg2_time2=0 eg2_time3=0.0489896 eg2_time4=0 eg2_time5=0 eg2_level1=0 eg2_level2=1 eg2_level3=0.9055118 eg2_level4=0.9055118 eg2_level5=1 eg2_cutoff_curvecc131=201 eg2_cutoff_oncc131=1042.2857143 eg3_amplitude=100 eg3_sustain=4 eg3_time1=0 eg3_time2=0 eg3_time3=2.4411694 eg3_time4=0.0314038 eg3_time5=0.1683327 eg3_level1=0 eg3_level2=1 eg3_level3=1 eg3_level4=0 eg3_level5=0 amplitude_cc16=100 ampeg_attack=0 ampeg_release=0.1683327 eg4_time1=0 eg4_time2=0 eg4_time3=2.4411694 eg4_time4=0.0314038 eg4_time5=0.1683327 eg4_level1=1 eg4_level2=1 eg4_level3=1 eg4_level4=1 eg4_level5=1
<region>sample=../Sample/Wave2005.wav lokey=56 hikey=56 pitch_keycenter=60 tune=200 loop_mode=one_shot pan=0 eg2_cutoff=5472 eg2_sustain=4 eg2_time1=0 eg2_time2=0 eg2_time3=0.0489896 eg2_time4=0 eg2_time5=0 eg2_level1=0 eg2_level2=1 eg2_level3=0.9055118 eg2_level4=0.9055118 eg2_level5=1 eg2_cutoff_curvecc131=201 eg2_cutoff_oncc131=1042.2857143 eg3_amplitude=100 eg3_sustain=4 eg3_time1=0 eg3_time2=0 eg3_time3=2.3877886 eg3_time4=0.0307171 eg3_time5=0.1646518 eg3_level1=0 eg3_level2=1 eg3_level3=1 eg3_level4=0 eg3_level5=0 amplitude_cc16=100 ampeg_attack=0 ampeg_release=0.1646518 eg4_time1=0 eg4_time2=0 eg4_time3=2.3877886 eg4_time4=0.0307171 eg4_time5=0.1646518 eg4_level1=1 eg4_level2=1 eg4_level3=1 eg4_level4=1 eg4_level5=1
<region>sample=../Sample/Wave2005.wav lokey=57 hikey=57 pitch_keycenter=60 tune=150 loop_mode=one_shot pan=0 eg2_cutoff=5472 eg2_sustain=4 eg2_time1=0 eg2_time2=0 eg2_time3=0.0489896 eg2_time4=0 eg2_time5=0 eg2_level1=0 eg2_level2=1 eg2_level3=0.9055118 eg2_level4=0.9055118 eg2_level5=1 eg2_cutoff_curvecc131=201 eg2_cutoff_oncc131=1042.2857143 eg3_amplitude=100 eg3_sustain=4 eg3_time1=0 eg3_time2=0 eg3_time3=2.3355751 eg3_time4=0.0300454 eg3_time5=0.1610514 eg3_level1=0 eg3_level2=1 eg3_level3=1 eg3_level4=0 eg3_level5=0 amplitude_cc16=100 ampeg_attack=0 ampeg_release=0.1610514 eg4_time1=0 eg4_time2=0 eg4_time3=2.3355751 eg4_time4=0.0300454 eg4_time5=0.1610514 eg4_level1=1 eg4_level2=1 eg4_level3=1 eg4_level4=1 eg4_level5=1
<region>sample=../Sample/Wave2005.wav lokey=58 hikey=58 pitch_keycenter=60 tune=100 loop_mode=one_shot pan=0 eg2_cutoff=5472 eg2_sustain=4 eg2_time1=0 eg2_time2=0 eg2_time3=0.0489896 eg2_time4=0 eg2_time5=0 eg2_level1=0 eg2_level2=1 eg2_level3=0.9055118 eg2_level4=0.9055118 eg2_level5=1 eg2_cutoff_curvecc131=201 eg2_cutoff_oncc131=1042.2857143 eg3_amplitude=100 eg3_sustain=4 eg3_time1=0 eg3_time2=0 eg3_time3=2.2845034 eg3_time4=0.0293884 eg3_time5=0.1575297 eg3_level1=0 eg3_level2=1 eg3_level3=1 eg3_level4=0 eg3_level5=0 amplitude_cc16=100 ampeg_attack=0 ampeg_release=0.1575297 eg4_time1=0 eg4_time2=0 eg4_time3=2.2845034 eg4_time4=0.0293884 eg4_time5=0.1575297 eg4_level1=1 eg4_level2=1 eg4_level3=1 eg4_level4=1 eg4_level5=1
<region>sample=../Sample/Wave2005.wav lokey=59 hikey=59 pitch_keycenter=60 tune=50 loop_mode=one_shot pan=0 eg2_cutoff=5472 eg2_sustain=4 eg2_time1=0 eg2_time2=0 eg2_time3=0.0489896 eg2_time4=0 eg2_time5=0 eg2_level1=0 eg2_level2=1 eg2_level3=0.9055118 eg2_level4=0.9055118 eg2_level5=1 eg2_cutoff_curvecc131=201 eg2_cutoff_oncc131=1042.2857143 eg3_amplitude=100 eg3_sustain=4 eg3_time1=0 eg3_time2=0 eg3_time3=2.2345484 eg3_time4=0.0287457 eg3_time5=0.154085 eg3_level1=0 eg3_level2=1 eg3_level3=1 eg3_level4=0 eg3_level5=0 amplitude_cc16=100 ampeg_attack=0 ampeg_release=0.154085 eg4_time1=0 eg4_time2=0 eg4_time3=2.2345484 eg4_time4=0.0287457 eg4_time5=0.154085 eg4_level1=1 eg4_level2=1 eg4_level3=1 eg4_level4=1 eg4_level5=1
<region>sample=../Sample/Wave2005.wav lokey=60 hikey=60 pitch_keycenter=60 tune=0 loop_mode=one_shot pan=0 eg2_cutoff=5472 eg2_sustain=4 eg2_time1=0 eg2_time2=0 eg2_time3=0.0489896 eg2_time4=0 eg2_time5=0 eg2_level1=0 eg2_level2=1 eg2_level3=0.9055118 eg2_level4=0.9055118 eg2_level5=1 eg2_cutoff_curvecc131=201 eg2_cutoff_oncc131=1042.2857143 eg3_amplitude=100 eg3_sustain=4 eg3_time1=0 eg3_time2=0 eg3_time3=2.1856858 eg3_time4=0.0281172 eg3_time5=0.1507156 eg3_level1=0 eg3_level2=1 eg3_level3=1 eg3_level4=0 eg3_level5=0 amplitude_cc16=100 ampeg_attack=0 ampeg_release=0.1507156 eg4_time1=0 eg4_time2=0 eg4_time3=2.1856858 eg4_time4=0.0281172 eg4_time5=0.1507156 eg4_level1=1 eg4_level2=1 eg4_level3=1 eg4_level4=1 eg4_level5=1
<region>sample=../Sample/Wave2005.wav lokey=61 hikey=61 pitch_keycenter=60 tune=-49 loop_mode=one_shot pan=0 eg2_cutoff=5472 eg2_sustain=4 eg2_time1=0 eg2_time2=0 eg2_time3=0.0489896 eg2_time4=0 eg2_time5=0 eg2_level1=0 eg2_level2=1 eg2_level3=0.9055118 eg2_level4=0.9055118 eg2_level5=1 eg2_cutoff_curvecc131=201 eg2_cutoff_oncc131=1042.2857143 eg3_amplitude=100 eg3_sustain=4 eg3_time1=0 eg3_time2=0 eg3_time3=2.1378916 eg3_time4=0.0275023 eg3_time5=0.14742 eg3_level1=0 eg3_level2=1 eg3_level3=1 eg3_level4=0 eg3_level5=0 amplitude_cc16=100 ampeg_attack=0 ampeg_release=0.14742 eg4_time1=0 eg4_time2=0 eg4_time3=2.1378916 eg4_time4=0.0275023 eg4_time5=0.14742 eg4_level1=1 eg4_level2=1 eg4_level3=1 eg4_level4=1 eg4_level5=1
<region>sample=../Sample/Wave2005.wav lokey=62 hikey=62 pitch_keycenter=60 tune=-99 loop_mode=one_shot pan=0 eg2_cutoff=5472 eg2_sustain=4 eg2_time1=0 eg2_time2=0 eg2_time3=0.0489896 eg2_time4=0 eg2_time5=0 eg2_level1=0 eg2_level2=1 eg2_level3=0.9055118 eg2_level4=0.9055118 eg2_level5=1 eg2_cutoff_curvecc131=201 eg2_cutoff_oncc131=1042.2857143 eg3_amplitude=100 eg3_sustain=4 eg3_time1=0 eg3_time2=0 eg3_time3=2.0911426 eg3_time4=0.0269009 eg3_time5=0.1441964 eg3_level1=0 eg3_level2=1 eg3_level3=1 eg3_level4=0 eg3_level5=0 amplitude_cc16=100 ampeg_attack=0 ampeg_release=0.1441964 eg4_time1=0 eg4_time2=0 eg4_time3=2.0911426 eg4_time4=0.0269009 eg4_time5=0.1441964 eg4_level1=1 eg4_level2=1 eg4_level3=1 eg4_level4=1 eg4_level5=1
<region>sample=../Sample/Wave2005.wav lokey=63 hikey=63 pitch_keycenter=60 tune=-149 loop_mode=one_shot pan=0 eg2_cutoff=5472 eg2_sustain=4 eg2_time1=0 eg2_time2=0 eg2_time3=0.0489896 eg2_time4=0 eg2_time5=0 eg2_level1=0 eg2_level2=1 eg2_level3=0.9055118 eg2_level4=0.9055118 eg2_level5=1 eg2_cutoff_curvecc131=201 eg2_cutoff_oncc131=1042.2857143 eg3_amplitude=100 eg3_sustain=4 eg3_time1=0 eg3_time2=0 eg3_time3=2.0454158 eg3_time4=0.0263127 eg3_time5=0.1410432 eg3_level1=0 eg3_level2=1 eg3_level3=1 eg3_level4=0 eg3_level5=0 amplitude_cc16=100 ampeg_attack=0 ampeg_release=0.1410432 eg4_time1=0 eg4_time2=0 eg4_time3=2.0454158 eg4_time4=0.0263127 eg4_time5=0.1410432 eg4_level1=1 eg4_level2=1 eg4_level3=1 eg4_level4=1 eg4_level5=1
<region>sample=../Sample/Wave2005.wav lokey=64 hikey=64 pitch_keycenter=60 tune=-199 loop_mode=one_shot pan=0 eg2_cutoff=5472 eg2_sustain=4 eg2_time1=0 eg2_time2=0 eg2_time3=0.0489896 eg2_time4=0 eg2_time5=0 eg2_level1=0 eg2_level2=1 eg2_level3=0.9055118 eg2_level4=0.9055118 eg2_level5=1 eg2_cutoff_curvecc131=201 eg2_cutoff_oncc131=1042.2857143 eg3_amplitude=100 eg3_sustain=4 eg3_time1=0 eg3_time2=0 eg3_time3=2.0006889 eg3_time4=0.0257373 eg3_time5=0.137959 eg3_level1=0 eg3_level2=1 eg3_level3=1 eg3_level4=0 eg3_level5=0 amplitude_cc16=100 ampeg_attack=0 ampeg_release=0.137959 eg4_time1=0 eg4_time2=0 eg4_time3=2.0006889 eg4_time4=0.0257373 eg4_time5=0.137959 eg4_level1=1 eg4_level2=1 eg4_level3=1 eg4_level4=1 eg4_level5=1
<region>sample=../Sample/Wave2005.wav lokey=65 hikey=65 pitch_keycenter=60 tune=-249 loop_mode=one_shot pan=0 eg2_cutoff=5472 eg2_sustain=4 eg2_time1=0 eg2_time2=0 eg2_time3=0.0489896 eg2_time4=0 eg2_time5=0 eg2_level1=0 eg2_level2=1 eg2_level3=0.9055118 eg2_level4=0.9055118 eg2_level5=1 eg2_cutoff_curvecc131=201 eg2_cutoff_oncc131=1042.2857143 eg3_amplitude=100 eg3_sustain=4 eg3_time1=0 eg3_time2=0 eg3_time3=1.9569401 eg3_time4=0.0251745 eg3_time5=0.1349423 eg3_level1=0 eg3_level2=1 eg3_level3=1 eg3_level4=0 eg3_level5=0 amplitude_cc16=100 ampeg_attack=0 ampeg_release=0.1349423 eg4_time1=0 eg4_time2=0 eg4_time3=1.9569401 eg4_time4=0.0251745 eg4_time5=0.1349423 eg4_level1=1 eg4_level2=1 eg4_level3=1 eg4_level4=1 eg4_level5=1
<region>sample=../Sample/Wave2005.wav lokey=66 hikey=66 pitch_keycenter=60 tune=-299 loop_mode=one_shot pan=0 eg2_cutoff=5472 eg2_sustain=4 eg2_time1=0 eg2_time2=0 eg2_time3=0.0489896 eg2_time4=0 eg2_time5=0 eg2_level1=0 eg2_level2=1 eg2_level3=0.9055118 eg2_level4=0.9055118 eg2_level5=1 eg2_cutoff_curvecc131=201 eg2_cutoff_oncc131=1042.2857143 eg3_amplitude=100 eg3_sustain=4 eg3_time1=0 eg3_time2=0 eg3_time3=1.9141479 eg3_time4=0.024624 eg3_time5=0.1319915 eg3_level1=0 eg3_level2=1 eg3_level3=1 eg3_level4=0 eg3_level5=0 amplitude_cc16=100 ampeg_attack=0 ampeg_release=0.1319915 eg4_time1=0 eg4_time2=0 eg4_time3=1.9141479 eg4_time4=0.024624 eg4_time5=0.1319915 eg4_level1=1 eg4_level2=1 eg4_level3=1 eg4_level4=1 eg4_level5=1
<region>sample=../Sample/Wave2005.wav lokey=67 hikey=67 pitch_keycenter=60 tune=-349 loop_mode=one_shot pan=0 eg2_cutoff=5472 eg2_sustain=4 eg2_time1=0 eg2_time2=0 eg2_time3=0.0489896 eg2_time4=0 eg2_time5=0 eg2_level1=0 eg2_level2=1 eg2_level3=0.9055118 eg2_level4=0.9055118 eg2_level5=1 eg2_cutoff_curvecc131=201 eg2_cutoff_oncc131=1042.2857143 eg3_amplitude=100 eg3_sustain=4 eg3_time1=0 eg3_time2=0 eg3_time3=1.8722915 eg3_time4=0.0240856 eg3_time5=0.1291053 eg3_level1=0 eg3_level2=1 eg3_level3=1 eg3_level4=0 eg3_level5=0 amplitude_cc16=100 ampeg_attack=0 ampeg_release=0.1291053 eg4_time1=0 eg4_time2=0 eg4_time3=1.8722915 eg4_time4=0.0240856 eg4_time5=0.1291053 eg4_level1=1 eg4_level2=1 eg4_level3=1 eg4_level4=1 eg4_level5=1
<region>sample=../Sample/Wave2005.wav lokey=68 hikey=68 pitch_keycenter=60 tune=-399 loop_mode=one_shot pan=0 eg2_cutoff=5472 eg2_sustain=4 eg2_time1=0 eg2_time2=0 eg2_time3=0.0489896 eg2_time4=0 eg2_time5=0 eg2_level1=0 eg2_level2=1 eg2_level3=0.9055118 eg2_level4=0.9055118 eg2_level5=1 eg2_cutoff_curvecc131=201 eg2_cutoff_oncc131=1042.2857143 eg3_amplitude=100 eg3_sustain=4 eg3_time1=0 eg3_time2=0 eg3_time3=1.8313503 eg3_time4=0.0235589 eg3_time5=0.1262822 eg3_level1=0 eg3_level2=1 eg3_level3=1 eg3_level4=0 eg3_level5=0 amplitude_cc16=100 ampeg_attack=0 ampeg_release=0.1262822 eg4_time1=0 eg4_time2=0 eg4_time3=1.8313503 eg4_time4=0.0235589 eg4_time5=0.1262822 eg4_level1=1 eg4_level2=1 eg4_level3=1 eg4_level4=1 eg4_level5=1
<region>sample=../Sample/Wave2005.wav lokey=69 hikey=69 pitch_keycenter=60 tune=-449 loop_mode=one_shot pan=0 eg2_cutoff=5472 eg2_sustain=4 eg2_time1=0 eg2_time2=0 eg2_time3=0.0489896 eg2_time4=0 eg2_time5=0 eg2_level1=0 eg2_level2=1 eg2_level3=0.9055118 eg2_level4=0.9055118 eg2_level5=1 eg2_cutoff_curvecc131=201 eg2_cutoff_oncc131=1042.2857143 eg3_amplitude=100 eg3_sustain=4 eg3_time1=0 eg3_time2=0 eg3_time3=1.7913043 eg3_time4=0.0230438 eg3_time5=0.1235208 eg3_level1=0 eg3_level2=1 eg3_level3=1 eg3_level4=0 eg3_level5=0 amplitude_cc16=100 ampeg_attack=0 ampeg_release=0.1235208 eg4_time1=0 eg4_time2=0 eg4_time3=1.7913043 eg4_time4=0.0230438 eg4_time5=0.1235208 eg4_level1=1 eg4_level2=1 eg4_level3=1 eg4_level4=1 eg4_level5=1
<region>sample=../Sample/Wave2005.wav lokey=70 hikey=70 pitch_keycenter=60 tune=-499 loop_mode=one_shot pan=0 eg2_cutoff=5472 eg2_sustain=4 eg2_time1=0 eg2_time2=0 eg2_time3=0.0489896 eg2_time4=0 eg2_time5=0 eg2_level1=0 eg2_level2=1 eg2_level3=0.9055118 eg2_level4=0.9055118 eg2_level5=1 eg2_cutoff_curvecc131=201 eg2_cutoff_oncc131=1042.2857143 eg3_amplitude=100 eg3_sustain=4 eg3_time1=0 eg3_time2=0 eg3_time3=1.7521341 eg3_time4=0.0225399 eg3_time5=0.1208198 eg3_level1=0 eg3_level2=1 eg3_level3=1 eg3_level4=0 eg3_level5=0 amplitude_cc16=100 ampeg_attack=0 ampeg_release=0.1208198 eg4_time1=0 eg4_time2=0 eg4_time3=1.7521341 eg4_time4=0.0225399 eg4_time5=0.1208198 eg4_level1=1 eg4_level2=1 eg4_level3=1 eg4_level4=1 eg4_level5=1
<region>sample=../Sample/Wave2005.wav lokey=71 hikey=71 pitch_keycenter=60 tune=-549 loop_mode=one_shot pan=0 eg2_cutoff=5472 eg2_sustain=4 eg2_time1=0 eg2_time2=0 eg2_time3=0.0489896 eg2_time4=0 eg2_time5=0 eg2_level1=0 eg2_level2=1 eg2_level3=0.9055118 eg2_level4=0.9055118 eg2_level5=1 eg2_cutoff_curvecc131=201 eg2_cutoff_oncc131=1042.2857143 eg3_amplitude=100 eg3_sustain=4 eg3_time1=0 eg3_time2=0 eg3_time3=1.7138204 eg3_time4=0.022047 eg3_time5=0.1181778 eg3_level1=0 eg3_level2=1 eg3_level3=1 eg3_level4=0 eg3_level5=0 amplitude_cc16=100 ampeg_attack=0 ampeg_release=0.1181778 eg4_time1=0 eg4_time2=0 eg4_time3=1.7138204 eg4_time4=0.022047 eg4_time5=0.1181778 eg4_level1=1 eg4_level2=1 eg4_level3=1 eg4_level4=1 eg4_level5=1
<region>sample=../Sample/Wave2005.wav lokey=72 hikey=72 pitch_keycenter=60 tune=-599 loop_mode=one_shot pan=0 eg2_cutoff=5472 eg2_sustain=4 eg2_time1=0 eg2_time2=0 eg2_time3=0.0489896 eg2_time4=0 eg2_time5=0 eg2_level1=0 eg2_level2=1 eg2_level3=0.9055118 eg2_level4=0.9055118 eg2_level5=1 eg2_cutoff_curvecc131=201 eg2_cutoff_oncc131=1042.2857143 eg3_amplitude=100 eg3_sustain=4 eg3_time1=0 eg3_time2=0 eg3_time3=1.6763445 eg3_time4=0.0215649 eg3_time5=0.1155936 eg3_level1=0 eg3_level2=1 eg3_level3=1 eg3_level4=0 eg3_level5=0 amplitude_cc16=100 ampeg_attack=0 ampeg_release=0.1155936 eg4_time1=0 eg4_time2=0 eg4_time3=1.6763445 eg4_time4=0.0215649 eg4_time5=0.1155936 eg4_level1=1 eg4_level2=1 eg4_level3=1 eg4_level4=1 eg4_level5=1
<region>sample=../Sample/Wave2005.wav lokey=73 hikey=73 pitch_keycenter=60 tune=-649 loop_mode=one_shot pan=0 eg2_cutoff=5472 eg2_sustain=4 eg2_time1=0 eg2_time2=0 eg2_time3=0.0489896 eg2_time4=0 eg2_time5=0 eg2_level1=0 eg2_level2=1 eg2_level3=0.9055118 eg2_level4=0.9055118 eg2_level5=1 eg2_cutoff_curvecc131=201 eg2_cutoff_oncc131=1042.2857143 eg3_amplitude=100 eg3_sustain=4 eg3_time1=0 eg3_time2=0 eg3_time3=1.639688 eg3_time4=0.0210933 eg3_time5=0.113066 eg3_level1=0 eg3_level2=1 eg3_level3=1 eg3_level4=0 eg3_level5=0 amplitude_cc16=100 ampeg_attack=0 ampeg_release=0.113066 eg4_time1=0 eg4_time2=0 eg4_time3=1.639688 eg4_time4=0.0210933 eg4_time5=0.113066 eg4_level1=1 eg4_level2=1 eg4_level3=1 eg4_level4=1 eg4_level5=1
<region>sample=../Sample/Wave2005.wav lokey=74 hikey=74 pitch_keycenter=60 tune=-699 loop_mode=one_shot pan=0 eg2_cutoff=5472 eg2_sustain=4 eg2_time1=0 eg2_time2=0 eg2_time3=0.0489896 eg2_time4=0 eg2_time5=0 eg2_level1=0 eg2_level2=1 eg2_level3=0.9055118 eg2_level4=0.9055118 eg2_level5=1 eg2_cutoff_curvecc131=201 eg2_cutoff_oncc131=1042.2857143 eg3_amplitude=100 eg3_sustain=4 eg3_time1=0 eg3_time2=0 eg3_time3=1.6038332 eg3_time4=0.0206321 eg3_time5=0.1105936 eg3_level1=0 eg3_level2=1 eg3_level3=1 eg3_level4=0 eg3_level5=0 amplitude_cc16=100 ampeg_attack=0 ampeg_release=0.1105936 eg4_time1=0 eg4_time2=0 eg4_time3=1.6038332 eg4_time4=0.0206321 eg4_time5=0.1105936 eg4_level1=1 eg4_level2=1 eg4_level3=1 eg4_level4=1 eg4_level5=1
<region>sample=../Sample/Wave2005.wav lokey=75 hikey=75 pitch_keycenter=60 tune=-749 loop_mode=one_shot pan=0 eg2_cutoff=5472 eg2_sustain=4 eg2_time1=0 eg2_time2=0 eg2_time3=0.0489896 eg2_time4=0 eg2_time5=0 eg2_level1=0 eg2_level2=1 eg2_level3=0.9055118 eg2_level4=0.9055118 eg2_level5=1 eg2_cutoff_curvecc131=201 eg2_cutoff_oncc131=1042.2857143 eg3_amplitude=100 eg3_sustain=4 eg3_time1=0 eg3_time2=0 eg3_time3=1.5687623 eg3_time4=0.0201809 eg3_time5=0.1081752 eg3_level1=0 eg3_level2=1 eg3_level3=1 eg3_level4=0 eg3_level5=0 amplitude_cc16=100 ampeg_attack=0 ampeg_release=0.1081752 eg4_time1=0 eg4_time2=0 eg4_time3=1.5687623 eg4_time4=0.0201809 eg4_time5=0.1081752 eg4_level1=1 eg4_level2=1 eg4_level3=1 eg4_level4=1 eg4_level5=1
<region>sample=../Sample/Wave2005.wav lokey=76 hikey=76 pitch_keycenter=60 tune=-799 loop_mode=one_shot pan=0 eg2_cutoff=5472 eg2_sustain=4 eg2_time1=0 eg2_time2=0 eg2_time3=0.0489896 eg2_time4=0 eg2_time5=0 eg2_level1=0 eg2_level2=1 eg2_level3=0.9055118 eg2_level4=0.9055118 eg2_level5=1 eg2_cutoff_curvecc131=201 eg2_cutoff_oncc131=1042.2857143 eg3_amplitude=100 eg3_sustain=4 eg3_time1=0 eg3_time2=0 eg3_time3=1.5344584 eg3_time4=0.0197396 eg3_time5=0.1058098 eg3_level1=0 eg3_level2=1 eg3_level3=1 eg3_level4=0 eg3_level5=0 amplitude_cc16=100 ampeg_attack=0 ampeg_release=0.1058098 eg4_time1=0 eg4_time2=0 eg4_time3=1.5344584 eg4_time4=0.0197396 eg4_time5=0.1058098 eg4_level1=1 eg4_level2=1 eg4_level3=1 eg4_level4=1 eg4_level5=1
<region>sample=../Sample/Wave2005.wav lokey=77 hikey=77 pitch_keycenter=60 tune=-849 loop_mode=one_shot pan=0 eg2_cutoff=5472 eg2_sustain=4 eg2_time1=0 eg2_time2=0 eg2_time3=0.0489896 eg2_time4=0 eg2_time5=0 eg2_level1=0 eg2_level2=1 eg2_level3=0.9055118 eg2_level4=0.9055118 eg2_level5=1 eg2_cutoff_curvecc131=201 eg2_cutoff_oncc131=1042.2857143 eg3_amplitude=100 eg3_sustain=4 eg3_time1=0 eg3_time2=0 eg3_time3=1.5009045 eg3_time4=0.019308 eg3_time5=0.103496 eg3_level1=0 eg3_level2=1 eg3_level3=1 eg3_level4=0 eg3_level5=0 amplitude_cc16=100 ampeg_attack=0 ampeg_release=0.103496 eg4_time1=0 eg4_time2=0 eg4_time3=1.5009045 eg4_time4=0.019308 eg4_time5=0.103496 eg4_level1=1 eg4_level2=1 eg4_level3=1 eg4_level4=1 eg4_level5=1
<region>sample=../Sample/Wave2005.wav lokey=78 hikey=78 pitch_keycenter=60 tune=-899 loop_mode=one_shot pan=0 eg2_cutoff=5472 eg2_sustain=4 eg2_time1=0 eg2_time2=0 eg2_time3=0.0489896 eg2_time4=0 eg2_time5=0 eg2_level1=0 eg2_level2=1 eg2_level3=0.9055118 eg2_level4=0.9055118 eg2_level5=1 eg2_cutoff_curvecc131=201 eg2_cutoff_oncc131=1042.2857143 eg3_amplitude=100 eg3_sustain=4 eg3_time1=0 eg3_time2=0 eg3_time3=1.4680844 eg3_time4=0.0188858 eg3_time5=0.1012329 eg3_level1=0 eg3_level2=1 eg3_level3=1 eg3_level4=0 eg3_level5=0 amplitude_cc16=100 ampeg_attack=0 ampeg_release=0.1012329 eg4_time1=0 eg4_time2=0 eg4_time3=1.4680844 eg4_time4=0.0188858 eg4_time5=0.1012329 eg4_level1=1 eg4_level2=1 eg4_level3=1 eg4_level4=1 eg4_level5=1
<region>sample=../Sample/Wave2005.wav lokey=79 hikey=79 pitch_keycenter=60 tune=-949 loop_mode=one_shot pan=0 eg2_cutoff=5472 eg2_sustain=4 eg2_time1=0 eg2_time2=0 eg2_time3=0.0489896 eg2_time4=0 eg2_time5=0 eg2_level1=0 eg2_level2=1 eg2_level3=0.9055118 eg2_level4=0.9055118 eg2_level5=1 eg2_cutoff_curvecc131=201 eg2_cutoff_oncc131=1042.2857143 eg3_amplitude=100 eg3_sustain=4 eg3_time1=0 eg3_time2=0 eg3_time3=1.435982 eg3_time4=0.0184728 eg3_time5=0.0990192 eg3_level1=0 eg3_level2=1 eg3_level3=1 eg3_level4=0 eg3_level5=0 amplitude_cc16=100 ampeg_attack=0 ampeg_release=0.0990192 eg4_time1=0 eg4_time2=0 eg4_time3=1.435982 eg4_time4=0.0184728 eg4_time5=0.0990192 eg4_level1=1 eg4_level2=1 eg4_level3=1 eg4_level4=1 eg4_level5=1
<region>sample=../Sample/Wave2005.wav lokey=80 hikey=80 pitch_keycenter=60 tune=-999 loop_mode=one_shot pan=0 eg2_cutoff=5472 eg2_sustain=4 eg2_time1=0 eg2_time2=0 eg2_time3=0.0489896 eg2_time4=0 eg2_time5=0 eg2_level1=0 eg2_level2=1 eg2_level3=0.9055118 eg2_level4=0.9055118 eg2_level5=1 eg2_cutoff_curvecc131=201 eg2_cutoff_oncc131=1042.2857143 eg3_amplitude=100 eg3_sustain=4 eg3_time1=0 eg3_time2=0 eg3_time3=1.4045815 eg3_time4=0.0180689 eg3_time5=0.096854 eg3_level1=0 eg3_level2=1 eg3_level3=1 eg3_level4=0 eg3_level5=0 amplitude_cc16=100 ampeg_attack=0 ampeg_release=0.096854 eg4_time1=0 eg4_time2=0 eg4_time3=1.4045815 eg4_time4=0.0180689 eg4_time5=0.096854 eg4_level1=1 eg4_level2=1 eg4_level3=1 eg4_level4=1 eg4_level5=1
<region>sample=../Sample/Wave2005.wav lokey=81 hikey=81 pitch_keycenter=60 tune=-1049 loop_mode=one_shot pan=0 eg2_cutoff=5472 eg2_sustain=4 eg2_time1=0 eg2_time2=0 eg2_time3=0.0489896 eg2_time4=0 eg2_time5=0 eg2_level1=0 eg2_level2=1 eg2_level3=0.9055118 eg2_level4=0.9055118 eg2_level5=1 eg2_cutoff_curvecc131=201 eg2_cutoff_oncc131=1042.2857143 eg3_amplitude=100 eg3_sustain=4 eg3_time1=0 eg3_time2=0 eg3_time3=1.3738677 eg3_time4=0.0176738 eg3_time5=0.0947361 eg3_level1=0 eg3_level2=1 eg3_level3=1 eg3_level4=0 eg3_level5=0 amplitude_cc16=100 ampeg_attack=0 ampeg_release=0.0947361 eg4_time1=0 eg4_time2=0 eg4_time3=1.3738677 eg4_time4=0.0176738 eg4_time5=0.0947361 eg4_level1=1 eg4_level2=1 eg4_level3=1 eg4_level4=1 eg4_level5=1
<region>sample=../Sample/Wave2005.wav lokey=82 hikey=82 pitch_keycenter=60 tune=-1099 loop_mode=one_shot pan=0 eg2_cutoff=5472 eg2_sustain=4 eg2_time1=0 eg2_time2=0 eg2_time3=0.0489896 eg2_time4=0 eg2_time5=0 eg2_level1=0 eg2_level2=1 eg2_level3=0.9055118 eg2_level4=0.9055118 eg2_level5=1 eg2_cutoff_curvecc131=201 eg2_cutoff_oncc131=1042.2857143 eg3_amplitude=100 eg3_sustain=4 eg3_time1=0 eg3_time2=0 eg3_time3=1.3438255 eg3_time4=0.0172873 eg3_time5=0.0926645 eg3_level1=0 eg3_level2=1 eg3_level3=1 eg3_level4=0 eg3_level5=0 amplitude_cc16=100 ampeg_attack=0 ampeg_release=0.0926645 eg4_time1=0 eg4_time2=0 eg4_time3=1.3438255 eg4_time4=0.0172873 eg4_time5=0.0926645 eg4_level1=1 eg4_level2=1 eg4_level3=1 eg4_level4=1 eg4_level5=1
<region>sample=../Sample/Wave2005.wav lokey=83 hikey=83 pitch_keycenter=60 tune=-1149 loop_mode=one_shot pan=0 eg2_cutoff=5472 eg2_sustain=4 eg2_time1=0 eg2_time2=0 eg2_time3=0.0489896 eg2_time4=0 eg2_time5=0 eg2_level1=0 eg2_level2=1 eg2_level3=0.9055118 eg2_level4=0.9055118 eg2_level5=1 eg2_cutoff_curvecc131=201 eg2_cutoff_oncc131=1042.2857143 eg3_amplitude=100 eg3_sustain=4 eg3_time1=0 eg3_time2=0 eg3_time3=1.3144402 eg3_time4=0.0169093 eg3_time5=0.0906382 eg3_level1=0 eg3_level2=1 eg3_level3=1 eg3_level4=0 eg3_level5=0 amplitude_cc16=100 ampeg_attack=0 ampeg_release=0.0906382 eg4_time1=0 eg4_time2=0 eg4_time3=1.3144402 eg4_time4=0.0169093 eg4_time5=0.0906382 eg4_level1=1 eg4_level2=1 eg4_level3=1 eg4_level4=1 eg4_level5=1
<region>sample=../Sample/Wave2005.wav lokey=84 hikey=84 pitch_keycenter=60 tune=-1199 loop_mode=one_shot pan=0 eg2_cutoff=5472 eg2_sustain=4 eg2_time1=0 eg2_time2=0 eg2_time3=0.0489896 eg2_time4=0 eg2_time5=0 eg2_level1=0 eg2_level2=1 eg2_level3=0.9055118 eg2_level4=0.9055118 eg2_level5=1 eg2_cutoff_curvecc131=201 eg2_cutoff_oncc131=1042.2857143 eg3_amplitude=100 eg3_sustain=4 eg3_time1=0 eg3_time2=0 eg3_time3=1.2856975 eg3_time4=0.0165395 eg3_time5=0.0886563 eg3_level1=0 eg3_level2=1 eg3_level3=1 eg3_level4=0 eg3_level5=0 amplitude_cc16=100 ampeg_attack=0 ampeg_release=0.0886563 eg4_time1=0 eg4_time2=0 eg4_time3=1.2856975 eg4_time4=0.0165395 eg4_time5=0.0886563 eg4_level1=1 eg4_level2=1 eg4_level3=1 eg4_level4=1 eg4_level5=1
<region>sample=../Sample/Wave2005.wav lokey=85 hikey=85 pitch_keycenter=60 tune=-1249 loop_mode=one_shot pan=0 eg2_cutoff=5472 eg2_sustain=4 eg2_time1=0 eg2_time2=0 eg2_time3=0.0489896 eg2_time4=0 eg2_time5=0 eg2_level1=0 eg2_level2=1 eg2_level3=0.9055118 eg2_level4=0.9055118 eg2_level5=1 eg2_cutoff_curvecc131=201 eg2_cutoff_oncc131=1042.2857143 eg3_amplitude=100 eg3_sustain=4 eg3_time1=0 eg3_time2=0 eg3_time3=1.2575833 eg3_time4=0.0161778 eg3_time5=0.0867176 eg3_level1=0 eg3_level2=1 eg3_level3=1 eg3_level4=0 eg3_level5=0 amplitude_cc16=100 ampeg_attack=0 ampeg_release=0.0867176 eg4_time1=0 eg4_time2=0 eg4_time3=1.2575833 eg4_time4=0.0161778 eg4_time5=0.0867176 eg4_level1=1 eg4_level2=1 eg4_level3=1 eg4_level4=1 eg4_level5=1
<region>sample=../Sample/Wave2005.wav lokey=86 hikey=86 pitch_keycenter=60 tune=-1299 loop_mode=one_shot pan=0 eg2_cutoff=5472 eg2_sustain=4 eg2_time1=0 eg2_time2=0 eg2_time3=0.0489896 eg2_time4=0 eg2_time5=0 eg2_level1=0 eg2_level2=1 eg2_level3=0.9055118 eg2_level4=0.9055118 eg2_level5=1 eg2_cutoff_curvecc131=201 eg2_cutoff_oncc131=1042.2857143 eg3_amplitude=100 eg3_sustain=4 eg3_time1=0 eg3_time2=0 eg3_time3=1.2300839 eg3_time4=0.0158241 eg3_time5=0.0848214 eg3_level1=0 eg3_level2=1 eg3_level3=1 eg3_level4=0 eg3_level5=0 amplitude_cc16=100 ampeg_attack=0 ampeg_release=0.0848214 eg4_time1=0 eg4_time2=0 eg4_time3=1.2300839 eg4_time4=0.0158241 eg4_time5=0.0848214 eg4_level1=1 eg4_level2=1 eg4_level3=1 eg4_level4=1 eg4_level5=1
<region>sample=../Sample/Wave2005.wav lokey=87 hikey=87 pitch_keycenter=60 tune=-1349 loop_mode=one_shot pan=0 eg2_cutoff=5472 eg2_sustain=4 eg2_time1=0 eg2_time2=0 eg2_time3=0.0489896 eg2_time4=0 eg2_time5=0 eg2_level1=0 eg2_level2=1 eg2_level3=0.9055118 eg2_level4=0.9055118 eg2_level5=1 eg2_cutoff_curvecc131=201 eg2_cutoff_oncc131=1042.2857143 eg3_amplitude=100 eg3_sustain=4 eg3_time1=0 eg3_time2=0 eg3_time3=1.2031858 eg3_time4=0.0154781 eg3_time5=0.0829666 eg3_level1=0 eg3_level2=1 eg3_level3=1 eg3_level4=0 eg3_level5=0 amplitude_cc16=100 ampeg_attack=0 ampeg_release=0.0829666 eg4_time1=0 eg4_time2=0 eg4_time3=1.2031858 eg4_time4=0.0154781 eg4_time5=0.0829666 eg4_level1=1 eg4_level2=1 eg4_level3=1 eg4_level4=1 eg4_level5=1
<region>sample=../Sample/Wave2005.wav lokey=88 hikey=88 pitch_keycenter=60 tune=-1399 loop_mode=one_shot pan=0 eg2_cutoff=5472 eg2_sustain=4 eg2_time1=0 eg2_time2=0 eg2_time3=0.0489896 eg2_time4=0 eg2_time5=0 eg2_level1=0 eg2_level2=1 eg2_level3=0.9055118 eg2_level4=0.9055118 eg2_level5=1 eg2_cutoff_curvecc131=201 eg2_cutoff_oncc131=1042.2857143 eg3_amplitude=100 eg3_sustain=4 eg3_time1=0 eg3_time2=0 eg3_time3=1.1768758 eg3_time4=0.0151396 eg3_time5=0.0811524 eg3_level1=0 eg3_level2=1 eg3_level3=1 eg3_level4=0 eg3_level5=0 amplitude_cc16=100 ampeg_attack=0 ampeg_release=0.0811524 eg4_time1=0 eg4_time2=0 eg4_time3=1.1768758 eg4_time4=0.0151396 eg4_time5=0.0811524 eg4_level1=1 eg4_level2=1 eg4_level3=1 eg4_level4=1 eg4_level5=1
<region>sample=../Sample/Wave2005.wav lokey=89 hikey=89 pitch_keycenter=60 tune=-1449 loop_mode=one_shot pan=0 eg2_cutoff=5472 eg2_sustain=4 eg2_time1=0 eg2_time2=0 eg2_time3=0.0489896 eg2_time4=0 eg2_time5=0 eg2_level1=0 eg2_level2=1 eg2_level3=0.9055118 eg2_level4=0.9055118 eg2_level5=1 eg2_cutoff_curvecc131=201 eg2_cutoff_oncc131=1042.2857143 eg3_amplitude=100 eg3_sustain=4 eg3_time1=0 eg3_time2=0 eg3_time3=1.1511412 eg3_time4=0.0148085 eg3_time5=0.0793778 eg3_level1=0 eg3_level2=1 eg3_level3=1 eg3_level4=0 eg3_level5=0 amplitude_cc16=100 ampeg_attack=0 ampeg_release=0.0793778 eg4_time1=0 eg4_time2=0 eg4_time3=1.1511412 eg4_time4=0.0148085 eg4_time5=0.0793778 eg4_level1=1 eg4_level2=1 eg4_level3=1 eg4_level4=1 eg4_level5=1
<region>sample=../Sample/Wave2005.wav lokey=90 hikey=90 pitch_keycenter=60 tune=-1499 loop_mode=one_shot pan=0 eg2_cutoff=5472 eg2_sustain=4 eg2_time1=0 eg2_time2=0 eg2_time3=0.0489896 eg2_time4=0 eg2_time5=0 eg2_level1=0 eg2_level2=1 eg2_level3=0.9055118 eg2_level4=0.9055118 eg2_level5=1 eg2_cutoff_curvecc131=201 eg2_cutoff_oncc131=1042.2857143 eg3_amplitude=100 eg3_sustain=4 eg3_time1=0 eg3_time2=0 eg3_time3=1.1259694 eg3_time4=0.0144847 eg3_time5=0.0776421 eg3_level1=0 eg3_level2=1 eg3_level3=1 eg3_level4=0 eg3_level5=0 amplitude_cc16=100 ampeg_attack=0 ampeg_release=0.0776421 eg4_time1=0 eg4_time2=0 eg4_time3=1.1259694 eg4_time4=0.0144847 eg4_time5=0.0776421 eg4_level1=1 eg4_level2=1 eg4_level3=1 eg4_level4=1 eg4_level5=1
<region>sample=../Sample/Wave2005.wav lokey=91 hikey=91 pitch_keycenter=60 tune=-1549 loop_mode=one_shot pan=0 eg2_cutoff=5472 eg2_sustain=4 eg2_time1=0 eg2_time2=0 eg2_time3=0.0489896 eg2_time4=0 eg2_time5=0 eg2_level1=0 eg2_level2=1 eg2_level3=0.9055118 eg2_level4=0.9055118 eg2_level5=1 eg2_cutoff_curvecc131=201 eg2_cutoff_oncc131=1042.2857143 eg3_amplitude=100 eg3_sustain=4 eg3_time1=0 eg3_time2=0 eg3_time3=1.1013479 eg3_time4=0.014168 eg3_time5=0.0759443 eg3_level1=0 eg3_level2=1 eg3_level3=1 eg3_level4=0 eg3_level5=0 amplitude_cc16=100 ampeg_attack=0 ampeg_release=0.0759443 eg4_time1=0 eg4_time2=0 eg4_time3=1.1013479 eg4_time4=0.014168 eg4_time5=0.0759443 eg4_level1=1 eg4_level2=1 eg4_level3=1 eg4_level4=1 eg4_level5=1
<region>sample=../Sample/Wave2005.wav lokey=92 hikey=92 pitch_keycenter=60 tune=-1599 loop_mode=one_shot pan=0 eg2_cutoff=5472 eg2_sustain=4 eg2_time1=0 eg2_time2=0 eg2_time3=0.0489896 eg2_time4=0 eg2_time5=0 eg2_level1=0 eg2_level2=1 eg2_level3=0.9055118 eg2_level4=0.9055118 eg2_level5=1 eg2_cutoff_curvecc131=201 eg2_cutoff_oncc131=1042.2857143 eg3_amplitude=100 eg3_sustain=4 eg3_time1=0 eg3_time2=0 eg3_time3=1.0772649 eg3_time4=0.0138582 eg3_time5=0.0742836 eg3_level1=0 eg3_level2=1 eg3_level3=1 eg3_level4=0 eg3_level5=0 amplitude_cc16=100 ampeg_attack=0 ampeg_release=0.0742836 eg4_time1=0 eg4_time2=0 eg4_time3=1.0772649 eg4_time4=0.0138582 eg4_time5=0.0742836 eg4_level1=1 eg4_level2=1 eg4_level3=1 eg4_level4=1 eg4_level5=1
<region>sample=../Sample/Wave2005.wav lokey=93 hikey=93 pitch_keycenter=60 tune=-1649 loop_mode=one_shot pan=0 eg2_cutoff=5472 eg2_sustain=4 eg2_time1=0 eg2_time2=0 eg2_time3=0.0489896 eg2_time4=0 eg2_time5=0 eg2_level1=0 eg2_level2=1 eg2_level3=0.9055118 eg2_level4=0.9055118 eg2_level5=1 eg2_cutoff_curvecc131=201 eg2_cutoff_oncc131=1042.2857143 eg3_amplitude=100 eg3_sustain=4 eg3_time1=0 eg3_time2=0 eg3_time3=1.0537084 eg3_time4=0.0135551 eg3_time5=0.0726593 eg3_level1=0 eg3_level2=1 eg3_level3=1 eg3_level4=0 eg3_level5=0 amplitude_cc16=100 ampeg_attack=0 ampeg_release=0.0726593 eg4_time1=0 eg4_time2=0 eg4_time3=1.0537084 eg4_time4=0.0135551 eg4_time5=0.0726593 eg4_level1=1 eg4_level2=1 eg4_level3=1 eg4_level4=1 eg4_level5=1
<region>sample=../Sample/Wave2005.wav lokey=94 hikey=94 pitch_keycenter=60 tune=-1699 loop_mode=one_shot pan=0 eg2_cutoff=5472 eg2_sustain=4 eg2_time1=0 eg2_time2=0 eg2_time3=0.0489896 eg2_time4=0 eg2_time5=0 eg2_level1=0 eg2_level2=1 eg2_level3=0.9055118 eg2_level4=0.9055118 eg2_level5=1 eg2_cutoff_curvecc131=201 eg2_cutoff_oncc131=1042.2857143 eg3_amplitude=100 eg3_sustain=4 eg3_time1=0 eg3_time2=0 eg3_time3=1.0306671 eg3_time4=0.0132587 eg3_time5=0.0710704 eg3_level1=0 eg3_level2=1 eg3_level3=1 eg3_level4=0 eg3_level5=0 amplitude_cc16=100 ampeg_attack=0 ampeg_release=0.0710704 eg4_time1=0 eg4_time2=0 eg4_time3=1.0306671 eg4_time4=0.0132587 eg4_time5=0.0710704 eg4_level1=1 eg4_level2=1 eg4_level3=1 eg4_level4=1 eg4_level5=1
<region>sample=../Sample/Wave2005.wav lokey=95 hikey=95 pitch_keycenter=60 tune=-1749 loop_mode=one_shot pan=0 eg2_cutoff=5472 eg2_sustain=4 eg2_time1=0 eg2_time2=0 eg2_time3=0.0489896 eg2_time4=0 eg2_time5=0 eg2_level1=0 eg2_level2=1 eg2_level3=0.9055118 eg2_level4=0.9055118 eg2_level5=1 eg2_cutoff_curvecc131=201 eg2_cutoff_oncc131=1042.2857143 eg3_amplitude=100 eg3_sustain=4 eg3_time1=0 eg3_time2=0 eg3_time3=1.0081296 eg3_time4=0.0129688 eg3_time5=0.0695164 eg3_level1=0 eg3_level2=1 eg3_level3=1 eg3_level4=0 eg3_level5=0 amplitude_cc16=100 ampeg_attack=0 ampeg_release=0.0695164 eg4_time1=0 eg4_time2=0 eg4_time3=1.0081296 eg4_time4=0.0129688 eg4_time5=0.0695164 eg4_level1=1 eg4_level2=1 eg4_level3=1 eg4_level4=1 eg4_level5=1
<region>sample=../Sample/Wave2005.wav lokey=96 hikey=96 pitch_keycenter=60 tune=-1799 loop_mode=one_shot pan=0 eg2_cutoff=5472 eg2_sustain=4 eg2_time1=0 eg2_time2=0 eg2_time3=0.0489896 eg2_time4=0 eg2_time5=0 eg2_level1=0 eg2_level2=1 eg2_level3=0.9055118 eg2_level4=0.9055118 eg2_level5=1 eg2_cutoff_curvecc131=201 eg2_cutoff_oncc131=1042.2857143 eg3_amplitude=100 eg3_sustain=4 eg3_time1=0 eg3_time2=0 eg3_time3=0.986085 eg3_time4=0.0126852 eg3_time5=0.0679963 eg3_level1=0 eg3_level2=1 eg3_level3=1 eg3_level4=0 eg3_level5=0 amplitude_cc16=100 ampeg_attack=0 ampeg_release=0.0679963 eg4_time1=0 eg4_time2=0 eg4_time3=0.986085 eg4_time4=0.0126852 eg4_time5=0.0679963 eg4_level1=1 eg4_level2=1 eg4_level3=1 eg4_level4=1 eg4_level5=1
<region>sample=../Sample/Wave2005.wav lokey=97 hikey=97 pitch_keycenter=60 tune=-1849 loop_mode=one_shot pan=0 eg2_cutoff=5472 eg2_sustain=4 eg2_time1=0 eg2_time2=0 eg2_time3=0.0489896 eg2_time4=0 eg2_time5=0 eg2_level1=0 eg2_level2=1 eg2_level3=0.9055118 eg2_level4=0.9055118 eg2_level5=1 eg2_cutoff_curvecc131=201 eg2_cutoff_oncc131=1042.2857143 eg3_amplitude=100 eg3_sustain=4 eg3_time1=0 eg3_time2=0 eg3_time3=0.9645224 eg3_time4=0.0124078 eg3_time5=0.0665094 eg3_level1=0 eg3_level2=1 eg3_level3=1 eg3_level4=0 eg3_level5=0 amplitude_cc16=100 ampeg_attack=0 ampeg_release=0.0665094 eg4_time1=0 eg4_time2=0 eg4_time3=0.9645224 eg4_time4=0.0124078 eg4_time5=0.0665094 eg4_level1=1 eg4_level2=1 eg4_level3=1 eg4_level4=1 eg4_level5=1
<region>sample=../Sample/Wave2005.wav lokey=98 hikey=98 pitch_keycenter=60 tune=-1899 loop_mode=one_shot pan=0 eg2_cutoff=5472 eg2_sustain=4 eg2_time1=0 eg2_time2=0 eg2_time3=0.0489896 eg2_time4=0 eg2_time5=0 eg2_level1=0 eg2_level2=1 eg2_level3=0.9055118 eg2_level4=0.9055118 eg2_level5=1 eg2_cutoff_curvecc131=201 eg2_cutoff_oncc131=1042.2857143 eg3_amplitude=100 eg3_sustain=4 eg3_time1=0 eg3_time2=0 eg3_time3=0.9434313 eg3_time4=0.0121365 eg3_time5=0.065055 eg3_level1=0 eg3_level2=1 eg3_level3=1 eg3_level4=0 eg3_level5=0 amplitude_cc16=100 ampeg_attack=0 ampeg_release=0.065055 eg4_time1=0 eg4_time2=0 eg4_time3=0.9434313 eg4_time4=0.0121365 eg4_time5=0.065055 eg4_level1=1 eg4_level2=1 eg4_level3=1 eg4_level4=1 eg4_level5=1
<region>sample=../Sample/Wave2005.wav lokey=99 hikey=99 pitch_keycenter=60 tune=-1949 loop_mode=one_shot pan=0 eg2_cutoff=5472 eg2_sustain=4 eg2_time1=0 eg2_time2=0 eg2_time3=0.0489896 eg2_time4=0 eg2_time5=0 eg2_level1=0 eg2_level2=1 eg2_level3=0.9055118 eg2_level4=0.9055118 eg2_level5=1 eg2_cutoff_curvecc131=201 eg2_cutoff_oncc131=1042.2857143 eg3_amplitude=100 eg3_sustain=4 eg3_time1=0 eg3_time2=0 eg3_time3=0.9228014 eg3_time4=0.0118711 eg3_time5=0.0636325 eg3_level1=0 eg3_level2=1 eg3_level3=1 eg3_level4=0 eg3_level5=0 amplitude_cc16=100 ampeg_attack=0 ampeg_release=0.0636325 eg4_time1=0 eg4_time2=0 eg4_time3=0.9228014 eg4_time4=0.0118711 eg4_time5=0.0636325 eg4_level1=1 eg4_level2=1 eg4_level3=1 eg4_level4=1 eg4_level5=1
<region>sample=../Sample/Wave2005.wav lokey=100 hikey=100 pitch_keycenter=60 tune=-1999 loop_mode=one_shot pan=0 eg2_cutoff=5472 eg2_sustain=4 eg2_time1=0 eg2_time2=0 eg2_time3=0.0489896 eg2_time4=0 eg2_time5=0 eg2_level1=0 eg2_level2=1 eg2_level3=0.9055118 eg2_level4=0.9055118 eg2_level5=1 eg2_cutoff_curvecc131=201 eg2_cutoff_oncc131=1042.2857143 eg3_amplitude=100 eg3_sustain=4 eg3_time1=0 eg3_time2=0 eg3_time3=0.9026226 eg3_time4=0.0116115 eg3_time5=0.062241 eg3_level1=0 eg3_level2=1 eg3_level3=1 eg3_level4=0 eg3_level5=0 amplitude_cc16=100 ampeg_attack=0 ampeg_release=0.062241 eg4_time1=0 eg4_time2=0 eg4_time3=0.9026226 eg4_time4=0.0116115 eg4_time5=0.062241 eg4_level1=1 eg4_level2=1 eg4_level3=1 eg4_level4=1 eg4_level5=1
<region>sample=../Sample/Wave2005.wav lokey=101 hikey=101 pitch_keycenter=60 tune=-2049 loop_mode=one_shot pan=0 eg2_cutoff=5472 eg2_sustain=4 eg2_time1=0 eg2_time2=0 eg2_time3=0.0489896 eg2_time4=0 eg2_time5=0 eg2_level1=0 eg2_level2=1 eg2_level3=0.9055118 eg2_level4=0.9055118 eg2_level5=1 eg2_cutoff_curvecc131=201 eg2_cutoff_oncc131=1042.2857143 eg3_amplitude=100 eg3_sustain=4 eg3_time1=0 eg3_time2=0 eg3_time3=0.882885 eg3_time4=0.0113576 eg3_time5=0.06088 eg3_level1=0 eg3_level2=1 eg3_level3=1 eg3_level4=0 eg3_level5=0 amplitude_cc16=100 ampeg_attack=0 ampeg_release=0.06088 eg4_time1=0 eg4_time2=0 eg4_time3=0.882885 eg4_time4=0.0113576 eg4_time5=0.06088 eg4_level1=1 eg4_level2=1 eg4_level3=1 eg4_level4=1 eg4_level5=1
<region>sample=../Sample/Wave2005.wav lokey=102 hikey=102 pitch_keycenter=60 tune=-2099 loop_mode=one_shot pan=0 eg2_cutoff=5472 eg2_sustain=4 eg2_time1=0 eg2_time2=0 eg2_time3=0.0489896 eg2_time4=0 eg2_time5=0 eg2_level1=0 eg2_level2=1 eg2_level3=0.9055118 eg2_level4=0.9055118 eg2_level5=1 eg2_cutoff_curvecc131=201 eg2_cutoff_oncc131=1042.2857143 eg3_amplitude=100 eg3_sustain=4 eg3_time1=0 eg3_time2=0 eg3_time3=0.8635791 eg3_time4=0.0111093 eg3_time5=0.0595488 eg3_level1=0 eg3_level2=1 eg3_level3=1 eg3_level4=0 eg3_level5=0 amplitude_cc16=100 ampeg_attack=0 ampeg_release=0.0595488 eg4_time1=0 eg4_time2=0 eg4_time3=0.8635791 eg4_time4=0.0111093 eg4_time5=0.0595488 eg4_level1=1 eg4_level2=1 eg4_level3=1 eg4_level4=1 eg4_level5=1
<region>sample=../Sample/Wave2005.wav lokey=103 hikey=103 pitch_keycenter=60 tune=-2149 loop_mode=one_shot pan=0 eg2_cutoff=5472 eg2_sustain=4 eg2_time1=0 eg2_time2=0 eg2_time3=0.0489896 eg2_time4=0 eg2_time5=0 eg2_level1=0 eg2_level2=1 eg2_level3=0.9055118 eg2_level4=0.9055118 eg2_level5=1 eg2_cutoff_curvecc131=201 eg2_cutoff_oncc131=1042.2857143 eg3_amplitude=100 eg3_sustain=4 eg3_time1=0 eg3_time2=0 eg3_time3=0.8446953 eg3_time4=0.0108664 eg3_time5=0.0582466 eg3_level1=0 eg3_level2=1 eg3_level3=1 eg3_level4=0 eg3_level5=0 amplitude_cc16=100 ampeg_attack=0 ampeg_release=0.0582466 eg4_time1=0 eg4_time2=0 eg4_time3=0.8446953 eg4_time4=0.0108664 eg4_time5=0.0582466 eg4_level1=1 eg4_level2=1 eg4_level3=1 eg4_level4=1 eg4_level5=1
<region>sample=../Sample/Wave2005.wav lokey=104 hikey=104 pitch_keycenter=60 tune=-2199 loop_mode=one_shot pan=0 eg2_cutoff=5472 eg2_sustain=4 eg2_time1=0 eg2_time2=0 eg2_time3=0.0489896 eg2_time4=0 eg2_time5=0 eg2_level1=0 eg2_level2=1 eg2_level3=0.9055118 eg2_level4=0.9055118 eg2_level5=1 eg2_cutoff_curvecc131=201 eg2_cutoff_oncc131=1042.2857143 eg3_amplitude=100 eg3_sustain=4 eg3_time1=0 eg3_time2=0 eg3_time3=0.8262244 eg3_time4=0.0106287 eg3_time5=0.0569729 eg3_level1=0 eg3_level2=1 eg3_level3=1 eg3_level4=0 eg3_level5=0 amplitude_cc16=100 ampeg_attack=0 ampeg_release=0.0569729 eg4_time1=0 eg4_time2=0 eg4_time3=0.8262244 eg4_time4=0.0106287 eg4_time5=0.0569729 eg4_level1=1 eg4_level2=1 eg4_level3=1 eg4_level4=1 eg4_level5=1
<region>sample=../Sample/Wave2005.wav lokey=105 hikey=105 pitch_keycenter=60 tune=-2249 loop_mode=one_shot pan=0 eg2_cutoff=5472 eg2_sustain=4 eg2_time1=0 eg2_time2=0 eg2_time3=0.0489896 eg2_time4=0 eg2_time5=0 eg2_level1=0 eg2_level2=1 eg2_level3=0.9055118 eg2_level4=0.9055118 eg2_level5=1 eg2_cutoff_curvecc131=201 eg2_cutoff_oncc131=1042.2857143 eg3_amplitude=100 eg3_sustain=4 eg3_time1=0 eg3_time2=0 eg3_time3=0.8081575 eg3_time4=0.0103963 eg3_time5=0.0557271 eg3_level1=0 eg3_level2=1 eg3_level3=1 eg3_level4=0 eg3_level5=0 amplitude_cc16=100 ampeg_attack=0 ampeg_release=0.0557271 eg4_time1=0 eg4_time2=0 eg4_time3=0.8081575 eg4_time4=0.0103963 eg4_time5=0.0557271 eg4_level1=1 eg4_level2=1 eg4_level3=1 eg4_level4=1 eg4_level5=1
<region>sample=../Sample/Wave2005.wav lokey=106 hikey=106 pitch_keycenter=60 tune=-2299 loop_mode=one_shot pan=0 eg2_cutoff=5472 eg2_sustain=4 eg2_time1=0 eg2_time2=0 eg2_time3=0.0489896 eg2_time4=0 eg2_time5=0 eg2_level1=0 eg2_level2=1 eg2_level3=0.9055118 eg2_level4=0.9055118 eg2_level5=1 eg2_cutoff_curvecc131=201 eg2_cutoff_oncc131=1042.2857143 eg3_amplitude=100 eg3_sustain=4 eg3_time1=0 eg3_time2=0 eg3_time3=0.7904856 eg3_time4=0.010169 eg3_time5=0.0545085 eg3_level1=0 eg3_level2=1 eg3_level3=1 eg3_level4=0 eg3_level5=0 amplitude_cc16=100 ampeg_attack=0 ampeg_release=0.0545085 eg4_time1=0 eg4_time2=0 eg4_time3=0.7904856 eg4_time4=0.010169 eg4_time5=0.0545085 eg4_level1=1 eg4_level2=1 eg4_level3=1 eg4_level4=1 eg4_level5=1
<region>sample=../Sample/Wave2005.wav lokey=107 hikey=107 pitch_keycenter=60 tune=-2349 loop_mode=one_shot pan=0 eg2_cutoff=5472 eg2_sustain=4 eg2_time1=0 eg2_time2=0 eg2_time3=0.0489896 eg2_time4=0 eg2_time5=0 eg2_level1=0 eg2_level2=1 eg2_level3=0.9055118 eg2_level4=0.9055118 eg2_level5=1 eg2_cutoff_curvecc131=201 eg2_cutoff_oncc131=1042.2857143 eg3_amplitude=100 eg3_sustain=4 eg3_time1=0 eg3_time2=0 eg3_time3=0.7732001 eg3_time4=0.0099466 eg3_time5=0.0533166 eg3_level1=0 eg3_level2=1 eg3_level3=1 eg3_level4=0 eg3_level5=0 amplitude_cc16=100 ampeg_attack=0 ampeg_release=0.0533166 eg4_time1=0 eg4_time2=0 eg4_time3=0.7732001 eg4_time4=0.0099466 eg4_time5=0.0533166 eg4_level1=1 eg4_level2=1 eg4_level3=1 eg4_level4=1 eg4_level5=1
<region>sample=../Sample/Wave2005.wav lokey=108 hikey=108 pitch_keycenter=60 tune=-2399 loop_mode=one_shot pan=0 eg2_cutoff=5472 eg2_sustain=4 eg2_time1=0 eg2_time2=0 eg2_time3=0.0489896 eg2_time4=0 eg2_time5=0 eg2_level1=0 eg2_level2=1 eg2_level3=0.9055118 eg2_level4=0.9055118 eg2_level5=1 eg2_cutoff_curvecc131=201 eg2_cutoff_oncc131=1042.2857143 eg3_amplitude=100 eg3_sustain=4 eg3_time1=0 eg3_time2=0 eg3_time3=0.7562927 eg3_time4=0.0097291 eg3_time5=0.0521507 eg3_level1=0 eg3_level2=1 eg3_level3=1 eg3_level4=0 eg3_level5=0 amplitude_cc16=100 ampeg_attack=0 ampeg_release=0.0521507 eg4_time1=0 eg4_time2=0 eg4_time3=0.7562927 eg4_time4=0.0097291 eg4_time5=0.0521507 eg4_level1=1 eg4_level2=1 eg4_level3=1 eg4_level4=1 eg4_level5=1
<region>sample=../Sample/Wave2005.wav lokey=109 hikey=109 pitch_keycenter=60 tune=-2449 loop_mode=one_shot pan=0 eg2_cutoff=5472 eg2_sustain=4 eg2_time1=0 eg2_time2=0 eg2_time3=0.0489896 eg2_time4=0 eg2_time5=0 eg2_level1=0 eg2_level2=1 eg2_level3=0.9055118 eg2_level4=0.9055118 eg2_level5=1 eg2_cutoff_curvecc131=201 eg2_cutoff_oncc131=1042.2857143 eg3_amplitude=100 eg3_sustain=4 eg3_time1=0 eg3_time2=0 eg3_time3=0.7397549 eg3_time4=0.0095164 eg3_time5=0.0510104 eg3_level1=0 eg3_level2=1 eg3_level3=1 eg3_level4=0 eg3_level5=0 amplitude_cc16=100 ampeg_attack=0 ampeg_release=0.0510104 eg4_time1=0 eg4_time2=0 eg4_time3=0.7397549 eg4_time4=0.0095164 eg4_time5=0.0510104 eg4_level1=1 eg4_level2=1 eg4_level3=1 eg4_level4=1 eg4_level5=1
<region>sample=../Sample/Wave2005.wav lokey=110 hikey=110 pitch_keycenter=60 tune=-2499 loop_mode=one_shot pan=0 eg2_cutoff=5472 eg2_sustain=4 eg2_time1=0 eg2_time2=0 eg2_time3=0.0489896 eg2_time4=0 eg2_time5=0 eg2_level1=0 eg2_level2=1 eg2_level3=0.9055118 eg2_level4=0.9055118 eg2_level5=1 eg2_cutoff_curvecc131=201 eg2_cutoff_oncc131=1042.2857143 eg3_amplitude=100 eg3_sustain=4 eg3_time1=0 eg3_time2=0 eg3_time3=0.7235788 eg3_time4=0.0093083 eg3_time5=0.0498949 eg3_level1=0 eg3_level2=1 eg3_level3=1 eg3_level4=0 eg3_level5=0 amplitude_cc16=100 ampeg_attack=0 ampeg_release=0.0498949 eg4_time1=0 eg4_time2=0 eg4_time3=0.7235788 eg4_time4=0.0093083 eg4_time5=0.0498949 eg4_level1=1 eg4_level2=1 eg4_level3=1 eg4_level4=1 eg4_level5=1
<region>sample=../Sample/Wave2005.wav lokey=111 hikey=111 pitch_keycenter=60 tune=-2549 loop_mode=one_shot pan=0 eg2_cutoff=5472 eg2_sustain=4 eg2_time1=0 eg2_time2=0 eg2_time3=0.0489896 eg2_time4=0 eg2_time5=0 eg2_level1=0 eg2_level2=1 eg2_level3=0.9055118 eg2_level4=0.9055118 eg2_level5=1 eg2_cutoff_curvecc131=201 eg2_cutoff_oncc131=1042.2857143 eg3_amplitude=100 eg3_sustain=4 eg3_time1=0 eg3_time2=0 eg3_time3=0.7077563 eg3_time4=0.0091047 eg3_time5=0.0488039 eg3_level1=0 eg3_level2=1 eg3_level3=1 eg3_level4=0 eg3_level5=0 amplitude_cc16=100 ampeg_attack=0 ampeg_release=0.0488039 eg4_time1=0 eg4_time2=0 eg4_time3=0.7077563 eg4_time4=0.0091047 eg4_time5=0.0488039 eg4_level1=1 eg4_level2=1 eg4_level3=1 eg4_level4=1 eg4_level5=1
<region>sample=../Sample/Wave2005.wav lokey=112 hikey=112 pitch_keycenter=60 tune=-2599 loop_mode=one_shot pan=0 eg2_cutoff=5472 eg2_sustain=4 eg2_time1=0 eg2_time2=0 eg2_time3=0.0489896 eg2_time4=0 eg2_time5=0 eg2_level1=0 eg2_level2=1 eg2_level3=0.9055118 eg2_level4=0.9055118 eg2_level5=1 eg2_cutoff_curvecc131=201 eg2_cutoff_oncc131=1042.2857143 eg3_amplitude=100 eg3_sustain=4 eg3_time1=0 eg3_time2=0 eg3_time3=0.6922799 eg3_time4=0.0089056 eg3_time5=0.0477367 eg3_level1=0 eg3_level2=1 eg3_level3=1 eg3_level4=0 eg3_level5=0 amplitude_cc16=100 ampeg_attack=0 ampeg_release=0.0477367 eg4_time1=0 eg4_time2=0 eg4_time3=0.6922799 eg4_time4=0.0089056 eg4_time5=0.0477367 eg4_level1=1 eg4_level2=1 eg4_level3=1 eg4_level4=1 eg4_level5=1
<region>sample=../Sample/Wave2005.wav lokey=113 hikey=113 pitch_keycenter=60 tune=-2649 loop_mode=one_shot pan=0 eg2_cutoff=5472 eg2_sustain=4 eg2_time1=0 eg2_time2=0 eg2_time3=0.0489896 eg2_time4=0 eg2_time5=0 eg2_level1=0 eg2_level2=1 eg2_level3=0.9055118 eg2_level4=0.9055118 eg2_level5=1 eg2_cutoff_curvecc131=201 eg2_cutoff_oncc131=1042.2857143 eg3_amplitude=100 eg3_sustain=4 eg3_time1=0 eg3_time2=0 eg3_time3=0.6771419 eg3_time4=0.0087109 eg3_time5=0.0466928 eg3_level1=0 eg3_level2=1 eg3_level3=1 eg3_level4=0 eg3_level5=0 amplitude_cc16=100 ampeg_attack=0 ampeg_release=0.0466928 eg4_time1=0 eg4_time2=0 eg4_time3=0.6771419 eg4_time4=0.0087109 eg4_time5=0.0466928 eg4_level1=1 eg4_level2=1 eg4_level3=1 eg4_level4=1 eg4_level5=1
<region>sample=../Sample/Wave2005.wav lokey=114 hikey=114 pitch_keycenter=60 tune=-2699 loop_mode=one_shot pan=0 eg2_cutoff=5472 eg2_sustain=4 eg2_time1=0 eg2_time2=0 eg2_time3=0.0489896 eg2_time4=0 eg2_time5=0 eg2_level1=0 eg2_level2=1 eg2_level3=0.9055118 eg2_level4=0.9055118 eg2_level5=1 eg2_cutoff_curvecc131=201 eg2_cutoff_oncc131=1042.2857143 eg3_amplitude=100 eg3_sustain=4 eg3_time1=0 eg3_time2=0 eg3_time3=0.6623349 eg3_time4=0.0085204 eg3_time5=0.0456718 eg3_level1=0 eg3_level2=1 eg3_level3=1 eg3_level4=0 eg3_level5=0 amplitude_cc16=100 ampeg_attack=0 ampeg_release=0.0456718 eg4_time1=0 eg4_time2=0 eg4_time3=0.6623349 eg4_time4=0.0085204 eg4_time5=0.0456718 eg4_level1=1 eg4_level2=1 eg4_level3=1 eg4_level4=1 eg4_level5=1
<region>sample=../Sample/Wave2005.wav lokey=115 hikey=115 pitch_keycenter=60 tune=-2749 loop_mode=one_shot pan=0 eg2_cutoff=5472 eg2_sustain=4 eg2_time1=0 eg2_time2=0 eg2_time3=0.0489896 eg2_time4=0 eg2_time5=0 eg2_level1=0 eg2_level2=1 eg2_level3=0.9055118 eg2_level4=0.9055118 eg2_level5=1 eg2_cutoff_curvecc131=201 eg2_cutoff_oncc131=1042.2857143 eg3_amplitude=100 eg3_sustain=4 eg3_time1=0 eg3_time2=0 eg3_time3=0.6478517 eg3_time4=0.0083341 eg3_time5=0.0446731 eg3_level1=0 eg3_level2=1 eg3_level3=1 eg3_level4=0 eg3_level5=0 amplitude_cc16=100 ampeg_attack=0 ampeg_release=0.0446731 eg4_time1=0 eg4_time2=0 eg4_time3=0.6478517 eg4_time4=0.0083341 eg4_time5=0.0446731 eg4_level1=1 eg4_level2=1 eg4_level3=1 eg4_level4=1 eg4_level5=1
<region>sample=../Sample/Wave2005.wav lokey=116 hikey=116 pitch_keycenter=60 tune=-2799 loop_mode=one_shot pan=0 eg2_cutoff=5472 eg2_sustain=4 eg2_time1=0 eg2_time2=0 eg2_time3=0.0489896 eg2_time4=0 eg2_time5=0 eg2_level1=0 eg2_level2=1 eg2_level3=0.9055118 eg2_level4=0.9055118 eg2_level5=1 eg2_cutoff_curvecc131=201 eg2_cutoff_oncc131=1042.2857143 eg3_amplitude=100 eg3_sustain=4 eg3_time1=0 eg3_time2=0 eg3_time3=0.6336852 eg3_time4=0.0081519 eg3_time5=0.0436963 eg3_level1=0 eg3_level2=1 eg3_level3=1 eg3_level4=0 eg3_level5=0 amplitude_cc16=100 ampeg_attack=0 ampeg_release=0.0436963 eg4_time1=0 eg4_time2=0 eg4_time3=0.6336852 eg4_time4=0.0081519 eg4_time5=0.0436963 eg4_level1=1 eg4_level2=1 eg4_level3=1 eg4_level4=1 eg4_level5=1
<region>sample=../Sample/Wave2005.wav lokey=117 hikey=117 pitch_keycenter=60 tune=-2849 loop_mode=one_shot pan=0 eg2_cutoff=5472 eg2_sustain=4 eg2_time1=0 eg2_time2=0 eg2_time3=0.0489896 eg2_time4=0 eg2_time5=0 eg2_level1=0 eg2_level2=1 eg2_level3=0.9055118 eg2_level4=0.9055118 eg2_level5=1 eg2_cutoff_curvecc131=201 eg2_cutoff_oncc131=1042.2857143 eg3_amplitude=100 eg3_sustain=4 eg3_time1=0 eg3_time2=0 eg3_time3=0.6198285 eg3_time4=0.0079736 eg3_time5=0.0427408 eg3_level1=0 eg3_level2=1 eg3_level3=1 eg3_level4=0 eg3_level5=0 amplitude_cc16=100 ampeg_attack=0 ampeg_release=0.0427408 eg4_time1=0 eg4_time2=0 eg4_time3=0.6198285 eg4_time4=0.0079736 eg4_time5=0.0427408 eg4_level1=1 eg4_level2=1 eg4_level3=1 eg4_level4=1 eg4_level5=1
<region>sample=../Sample/Wave2005.wav lokey=118 hikey=118 pitch_keycenter=60 tune=-2899 loop_mode=one_shot pan=0 eg2_cutoff=5472 eg2_sustain=4 eg2_time1=0 eg2_time2=0 eg2_time3=0.0489896 eg2_time4=0 eg2_time5=0 eg2_level1=0 eg2_level2=1 eg2_level3=0.9055118 eg2_level4=0.9055118 eg2_level5=1 eg2_cutoff_curvecc131=201 eg2_cutoff_oncc131=1042.2857143 eg3_amplitude=100 eg3_sustain=4 eg3_time1=0 eg3_time2=0 eg3_time3=0.6062748 eg3_time4=0.0077993 eg3_time5=0.0418061 eg3_level1=0 eg3_level2=1 eg3_level3=1 eg3_level4=0 eg3_level5=0 amplitude_cc16=100 ampeg_attack=0 ampeg_release=0.0418061 eg4_time1=0 eg4_time2=0 eg4_time3=0.6062748 eg4_time4=0.0077993 eg4_time5=0.0418061 eg4_level1=1 eg4_level2=1 eg4_level3=1 eg4_level4=1 eg4_level5=1
<region>sample=../Sample/Wave2005.wav lokey=119 hikey=119 pitch_keycenter=60 tune=-2949 loop_mode=one_shot pan=0 eg2_cutoff=5472 eg2_sustain=4 eg2_time1=0 eg2_time2=0 eg2_time3=0.0489896 eg2_time4=0 eg2_time5=0 eg2_level1=0 eg2_level2=1 eg2_level3=0.9055118 eg2_level4=0.9055118 eg2_level5=1 eg2_cutoff_curvecc131=201 eg2_cutoff_oncc131=1042.2857143 eg3_amplitude=100 eg3_sustain=4 eg3_time1=0 eg3_time2=0 eg3_time3=0.5930174 eg3_time4=0.0076287 eg3_time5=0.040892 eg3_level1=0 eg3_level2=1 eg3_level3=1 eg3_level4=0 eg3_level5=0 amplitude_cc16=100 ampeg_attack=0 ampeg_release=0.040892 eg4_time1=0 eg4_time2=0 eg4_time3=0.5930174 eg4_time4=0.0076287 eg4_time5=0.040892 eg4_level1=1 eg4_level2=1 eg4_level3=1 eg4_level4=1 eg4_level5=1
<region>sample=../Sample/Wave2005.wav lokey=120 hikey=120 pitch_keycenter=60 tune=-2999 loop_mode=one_shot pan=0 eg2_cutoff=5472 eg2_sustain=4 eg2_time1=0 eg2_time2=0 eg2_time3=0.0489896 eg2_time4=0 eg2_time5=0 eg2_level1=0 eg2_level2=1 eg2_level3=0.9055118 eg2_level4=0.9055118 eg2_level5=1 eg2_cutoff_curvecc131=201 eg2_cutoff_oncc131=1042.2857143 eg3_amplitude=100 eg3_sustain=4 eg3_time1=0 eg3_time2=0 eg3_time3=0.58005 eg3_time4=0.0074619 eg3_time5=0.0399978 eg3_level1=0 eg3_level2=1 eg3_level3=1 eg3_level4=0 eg3_level5=0 amplitude_cc16=100 ampeg_attack=0 ampeg_release=0.0399978 eg4_time1=0 eg4_time2=0 eg4_time3=0.58005 eg4_time4=0.0074619 eg4_time5=0.0399978 eg4_level1=1 eg4_level2=1 eg4_level3=1 eg4_level4=1 eg4_level5=1
<region>sample=../Sample/Wave2005.wav lokey=121 hikey=121 pitch_keycenter=60 tune=-3049 loop_mode=one_shot pan=0 eg2_cutoff=5472 eg2_sustain=4 eg2_time1=0 eg2_time2=0 eg2_time3=0.0489896 eg2_time4=0 eg2_time5=0 eg2_level1=0 eg2_level2=1 eg2_level3=0.9055118 eg2_level4=0.9055118 eg2_level5=1 eg2_cutoff_curvecc131=201 eg2_cutoff_oncc131=1042.2857143 eg3_amplitude=100 eg3_sustain=4 eg3_time1=0 eg3_time2=0 eg3_time3=0.5673661 eg3_time4=0.0072987 eg3_time5=0.0391232 eg3_level1=0 eg3_level2=1 eg3_level3=1 eg3_level4=0 eg3_level5=0 amplitude_cc16=100 ampeg_attack=0 ampeg_release=0.0391232 eg4_time1=0 eg4_time2=0 eg4_time3=0.5673661 eg4_time4=0.0072987 eg4_time5=0.0391232 eg4_level1=1 eg4_level2=1 eg4_level3=1 eg4_level4=1 eg4_level5=1
<region>sample=../Sample/Wave2005.wav lokey=122 hikey=122 pitch_keycenter=60 tune=-3099 loop_mode=one_shot pan=0 eg2_cutoff=5472 eg2_sustain=4 eg2_time1=0 eg2_time2=0 eg2_time3=0.0489896 eg2_time4=0 eg2_time5=0 eg2_level1=0 eg2_level2=1 eg2_level3=0.9055118 eg2_level4=0.9055118 eg2_level5=1 eg2_cutoff_curvecc131=201 eg2_cutoff_oncc131=1042.2857143 eg3_amplitude=100 eg3_sustain=4 eg3_time1=0 eg3_time2=0 eg3_time3=0.5549596 eg3_time4=0.0071391 eg3_time5=0.0382677 eg3_level1=0 eg3_level2=1 eg3_level3=1 eg3_level4=0 eg3_level5=0 amplitude_cc16=100 ampeg_attack=0 ampeg_release=0.0382677 eg4_time1=0 eg4_time2=0 eg4_time3=0.5549596 eg4_time4=0.0071391 eg4_time5=0.0382677 eg4_level1=1 eg4_level2=1 eg4_level3=1 eg4_level4=1 eg4_level5=1
<region>sample=../Sample/Wave2005.wav lokey=123 hikey=123 pitch_keycenter=60 tune=-3149 loop_mode=one_shot pan=0 eg2_cutoff=5472 eg2_sustain=4 eg2_time1=0 eg2_time2=0 eg2_time3=0.0489896 eg2_time4=0 eg2_time5=0 eg2_level1=0 eg2_level2=1 eg2_level3=0.9055118 eg2_level4=0.9055118 eg2_level5=1 eg2_cutoff_curvecc131=201 eg2_cutoff_oncc131=1042.2857143 eg3_amplitude=100 eg3_sustain=4 eg3_time1=0 eg3_time2=0 eg3_time3=0.5428243 eg3_time4=0.006983 eg3_time5=0.0374309 eg3_level1=0 eg3_level2=1 eg3_level3=1 eg3_level4=0 eg3_level5=0 amplitude_cc16=100 ampeg_attack=0 ampeg_release=0.0374309 eg4_time1=0 eg4_time2=0 eg4_time3=0.5428243 eg4_time4=0.006983 eg4_time5=0.0374309 eg4_level1=1 eg4_level2=1 eg4_level3=1 eg4_level4=1 eg4_level5=1
<region>sample=../Sample/Wave2005.wav lokey=124 hikey=124 pitch_keycenter=60 tune=-3199 loop_mode=one_shot pan=0 eg2_cutoff=5472 eg2_sustain=4 eg2_time1=0 eg2_time2=0 eg2_time3=0.0489896 eg2_time4=0 eg2_time5=0 eg2_level1=0 eg2_level2=1 eg2_level3=0.9055118 eg2_level4=0.9055118 eg2_level5=1 eg2_cutoff_curvecc131=201 eg2_cutoff_oncc131=1042.2857143 eg3_amplitude=100 eg3_sustain=4 eg3_time1=0 eg3_time2=0 eg3_time3=0.5309545 eg3_time4=0.0068303 eg3_time5=0.0366124 eg3_level1=0 eg3_level2=1 eg3_level3=1 eg3_level4=0 eg3_level5=0 amplitude_cc16=100 ampeg_attack=0 ampeg_release=0.0366124 eg4_time1=0 eg4_time2=0 eg4_time3=0.5309545 eg4_time4=0.0068303 eg4_time5=0.0366124 eg4_level1=1 eg4_level2=1 eg4_level3=1 eg4_level4=1 eg4_level5=1
<region>sample=../Sample/Wave2005.wav lokey=125 hikey=125 pitch_keycenter=60 tune=-3249 loop_mode=one_shot pan=0 eg2_cutoff=5472 eg2_sustain=4 eg2_time1=0 eg2_time2=0 eg2_time3=0.0489896 eg2_time4=0 eg2_time5=0 eg2_level1=0 eg2_level2=1 eg2_level3=0.9055118 eg2_level4=0.9055118 eg2_level5=1 eg2_cutoff_curvecc131=201 eg2_cutoff_oncc131=1042.2857143 eg3_amplitude=100 eg3_sustain=4 eg3_time1=0 eg3_time2=0 eg3_time3=0.5193441 eg3_time4=0.006681 eg3_time5=0.0358118 eg3_level1=0 eg3_level2=1 eg3_level3=1 eg3_level4=0 eg3_level5=0 amplitude_cc16=100 ampeg_attack=0 ampeg_release=0.0358118 eg4_time1=0 eg4_time2=0 eg4_time3=0.5193441 eg4_time4=0.006681 eg4_time5=0.0358118 eg4_level1=1 eg4_level2=1 eg4_level3=1 eg4_level4=1 eg4_level5=1
<region>sample=../Sample/Wave2005.wav lokey=126 hikey=126 pitch_keycenter=60 tune=-3299 loop_mode=one_shot pan=0 eg2_cutoff=5472 eg2_sustain=4 eg2_time1=0 eg2_time2=0 eg2_time3=0.0489896 eg2_time4=0 eg2_time5=0 eg2_level1=0 eg2_level2=1 eg2_level3=0.9055118 eg2_level4=0.9055118 eg2_level5=1 eg2_cutoff_curvecc131=201 eg2_cutoff_oncc131=1042.2857143 eg3_amplitude=100 eg3_sustain=4 eg3_time1=0 eg3_time2=0 eg3_time3=0.5079877 eg3_time4=0.0065349 eg3_time5=0.0350287 eg3_level1=0 eg3_level2=1 eg3_level3=1 eg3_level4=0 eg3_level5=0 amplitude_cc16=100 ampeg_attack=0 ampeg_release=0.0350287 eg4_time1=0 eg4_time2=0 eg4_time3=0.5079877 eg4_time4=0.0065349 eg4_time5=0.0350287 eg4_level1=1 eg4_level2=1 eg4_level3=1 eg4_level4=1 eg4_level5=1
<region>sample=../Sample/Wave2005.wav lokey=127 hikey=127 pitch_keycenter=60 tune=-3349 loop_mode=one_shot pan=0 eg2_cutoff=5472 eg2_sustain=4 eg2_time1=0 eg2_time2=0 eg2_time3=0.0489896 eg2_time4=0 eg2_time5=0 eg2_level1=0 eg2_level2=1 eg2_level3=0.9055118 eg2_level4=0.9055118 eg2_level5=1 eg2_cutoff_curvecc131=201 eg2_cutoff_oncc131=1042.2857143 eg3_amplitude=100 eg3_sustain=4 eg3_time1=0 eg3_time2=0 eg3_time3=0.4968796 eg3_time4=0.006392 eg3_time5=0.0342627 eg3_level1=0 eg3_level2=1 eg3_level3=1 eg3_level4=0 eg3_level5=0 amplitude_cc16=100 ampeg_attack=0 ampeg_release=0.0342627 eg4_time1=0 eg4_time2=0 eg4_time3=0.4968796 eg4_time4=0.006392 eg4_time5=0.0342627 eg4_level1=1 eg4_level2=1 eg4_level3=1 eg4_level4=1 eg4_level5=1
<curve>curve_index=77 v000=-1 v009=-0.2318432 v017=-0.1682223 v025=-0.1266754 v033=-0.0943052 v041=-0.0667365 v049=-0.0418818 v057=-0.0185085 v065=0.004257 v073=0.0271599 v081=0.0509737 v089=0.0766712 v097=0.1057219 v105=0.1408034 v113=0.1881379 v121=0.2706334 v127=1
<curve>curve_index=133 v000=-0.4724409 v127=0.5275591
<curve>curve_index=201 v000=-1 v127=0
<curve>curve_index=202 v000=-1 v001=-0.9997494 v009=-0.991513 v017=-0.9762171 v025=-0.9551519 v033=-0.92858 v041=-0.8964065 v049=-0.8583211 v057=-0.8138437 v065=-0.7623383 v073=-0.7030102 v081=-0.6348936 v089=-0.5568321 v097=-0.467451 v105=-0.3651233 v113=-0.2479268 v121=-0.1135922 v127=0
<curve>curve_index=203 v000=-1 v001=-1 v009=-0.9999675 v017=-0.9996583 v025=-0.9985752 v033=-0.9960114 v041=-0.9910577 v049=-0.9825829 v057=-0.9691807 v065=-0.9490722 v073=-0.9199401 v081=-0.8786619 v089=-0.82088 v097=-0.740303 v105=-0.6275479 v113=-0.4681713 v121=-0.2392198 v127=0
<curve>curve_index=204 v000=-1 v001=-0.9323558 v009=-0.741349 v017=-0.6263141 v025=-0.5373342 v033=-0.4635977 v041=-0.4002693 v049=-0.3446331 v057=-0.2949675 v065=-0.2500953 v073=-0.2091682 v081=-0.1715511 v089=-0.1367543 v097=-0.1043909 v105=-0.0741496 v113=-0.0457759 v121=-0.0190586 v127=0
<curve>curve_index=205 v000=-1 v001=-0.6880006 v009=-0.4427647 v017=-0.3466618 v025=-0.2834429 v033=-0.2361238 v041=-0.1983568 v049=-0.1670059 v057=-0.1402727 v065=-0.1170246 v073=-0.0964998 v081=-0.0781602 v089=-0.061612 v097=-0.0465575 v105=-0.0327669 v113=-0.0200585 v121=-0.0082866 v127=0
<curve>curve_index=206 v000=-1 v001=-0.9992164 v009=-0.9919382 v017=-0.9822354 v025=-0.9686809 v033=-0.9484937 v041=-0.9155493 v049=-0.8540328 v057=-0.7175582 v065=-0.4426581 v073=-0.2171001 v081=-0.1176907 v089=-0.0699434 v097=-0.0428826 v105=-0.0256514 v113=-0.0137704 v121=-0.0051009 v127=0
<curve>curve_index=207 v000=-1 v001=-0.9416361 v009=-0.7228567 v017=-0.6420575 v025=-0.5979344 v033=-0.568666 v041=-0.5466723 v049=-0.5285483 v057=-0.5124439 v065=-0.497147 v073=-0.4816686 v081=-0.4649713 v089=-0.4456677 v097=-0.4214805 v105=-0.3879226 v113=-0.3341321 v121=-0.2242261 v127=0
